<?xml version="1.0" encoding="utf-8"?>
<!-- Generator: Adobe Illustrator 19.0.0, SVG Export Plug-In . SVG Version: 6.00 Build 0)  -->
<svg version="1.1" id="Layer_1" xmlns="http://www.w3.org/2000/svg" xmlns:xlink="http://www.w3.org/1999/xlink" x="0px" y="0px"
	 width="1400px" height="980px" viewBox="0 0 1400 980" style="enable-background:new 0 0 1400 980;" xml:space="preserve">
<style type="text/css">
	.st0{clip-path:url(#XMLID_21_);}
	.st1{fill:url(#XMLID_24_);}
	.st2{fill:#FCF9F4;}
	.st3{fill:#F9F9EF;}
	.st4{fill:#F3E8E2;}
	.st5{fill:#BC7D60;}
	.st6{fill:#A8674E;}
	.st7{fill:#9B3D21;}
	.st8{fill:#8E6B64;}
	.st9{fill:#846D90;}
	.st10{fill:#A4BCB9;}
	.st11{fill:#8B9AB3;}
	.st12{fill:#8DA6BB;}
	.st13{fill:#716D94;}
	.st14{fill:#93AFC0;}
	.st15{fill:#DB925A;}
	.st16{fill:#E4BB99;}
	.st17{fill:#FDE7A8;}
	.st18{fill:#E7C288;}
	.st19{fill:url(#XMLID_26_);}
	.st20{fill:#F4F4DC;}
	.st21{fill:#E296A1;}
	.st22{fill:url(#XMLID_27_);}
	.st23{fill:#FF0080;}
	.st24{fill:#31934F;}
	.st25{fill:url(#XMLID_28_);}
	.st26{fill:#86BAA7;}
	.st27{fill:#5E3447;}
	.st28{fill:#373842;}
	.st29{fill:url(#XMLID_29_);}
	.st30{fill:#EAD8C7;}
	.st31{fill:#FCECDB;}
	.st32{fill:#C17A49;}
	.st33{fill:#EDBBA9;}
	.st34{fill:url(#XMLID_30_);}
	.st35{fill:#DB935C;}
	.st36{fill:#FBFFAE;}
	.st37{fill:#230C18;}
	.st38{fill:url(#XMLID_90_);}
	.st39{fill:#FFFFFF;}
	.st40{fill:#9B124A;}
	.st41{fill:url(#XMLID_277_);}
	.st42{fill:#535460;}
	.st43{fill:url(#XMLID_289_);}
	.st44{fill:url(#XMLID_290_);}
	.st45{fill:url(#XMLID_293_);}
	.st46{fill:url(#XMLID_298_);}
	.st47{fill:#BC3C77;}
	.st48{fill:#C96161;}
	.st49{fill:#82566C;}
	.st50{fill:url(#XMLID_299_);}
	.st51{fill:url(#XMLID_300_);}
	.st52{fill:url(#XMLID_301_);}
	.st53{fill:url(#XMLID_302_);}
	.st54{fill:url(#XMLID_303_);}
	.st55{fill:url(#XMLID_304_);}
	.st56{fill:#E8B782;}
	.st57{fill:#EFE1A8;}
	.st58{fill:#B772AF;}
	.st59{fill:url(#XMLID_305_);}
	.st60{fill:#F70673;}
	.st61{fill:#FFDB42;}
</style>
<g id="XMLID_19_">
	<defs>
		<rect id="XMLID_18_" width="1400" height="980"/>
	</defs>
	<clipPath id="XMLID_21_">
		<use xlink:href="#XMLID_18_"  style="overflow:visible;"/>
	</clipPath>
	<g id="XMLID_17_" class="st0">
		<linearGradient id="XMLID_24_" gradientUnits="userSpaceOnUse" x1="700" y1="-2.2301" x2="700" y2="555.0009">
			<stop  offset="0" style="stop-color:#EDD9D8"/>
			<stop  offset="1" style="stop-color:#F7F1DB"/>
		</linearGradient>
		<rect id="XMLID_25_" class="st1" width="1400" height="980"/>
		<ellipse id="XMLID_876_" class="st2" cx="859.7" cy="561.7" rx="107.3" ry="87.1"/>
		<path id="XMLID_866_" class="st3" d="M660.8,483.8c-59.9,3.9-123.5,12.1-181.5,18c-36,3.7-69.3,11.8-105.8,12
			c36.4,0.2,70.3,10.4,106.3,8.8c-43.9,14.4-112.6,9.1-149,38.4c40.8,11.4,98.6,10,141.2,9.6c69.5-0.6,140.2-1.7,209.6-6.5
			c26.9-1.9,120.3-4.3,75.6-53c-18.8-20.5-65.1-17-89.6-21.8C669,487.2,670.7,485.3,660.8,483.8z"/>
		<path id="XMLID_845_" class="st3" d="M363.8,423.8c21.5,2,40.7-13.2,60.1-12.2c10.3,0.5,21.6,10.3,35.3,12.2
			c32.3,4.6,67.1-1.5,99.8,0c31.3,1.5,63.3,4.4,95.9,6c24.6,1.2,60.6-2.4,82.9,6.2c-44.3-4.6-93.6,8.5-139.5,5.8
			c-27.3-1.5-53.4,0.9-81.4-0.7C472,438.7,420.9,439.6,363.8,423.8z"/>
		<path id="XMLID_840_" class="st3" d="M1422.9,387.8c-28.6,15.7-57.8,7-88.4,16.1c-27.1,8.1-52.9,18.6-83.3,23.5
			C1159.6,442.2,1066,443,973,452.3c-35.9,3.6-90.2-5.9-122.3,7.6c73-1.5,141.1,10.7,212.2,5.6c78.8-5.7,160.5,0.7,239.2,0.3
			c-35.6,0.1-67.5,7.1-102.4,9.2c-24.4,1.4-53.3-2.2-76.1,6.1c56.1-4.5,113,2.1,169.5,2.1c24,0,42.8,6.4,66.9,7
			c30.9,0.8,62-10.2,92.8-12.5C1454.8,448.6,1431,418.8,1422.9,387.8z"/>
		<path id="XMLID_838_" class="st3" d="M909.8,177.8c-29.3,3.5-56.7,5.4-83.8,18.8c50.4,41.1,150.8,4.2,207.3,29.2
			c-30.1,17.5-80.2,24.9-114.5,33.7c-25.1,6.4-53.1,1.1-75.7,12c-23,11.1-23.9,34.2-44.7,41.3c-21.5,7.3-53.7-7.6-77.5-6.2
			c-22.4,1.4-44.9,5.4-67.7,9.1c-42.5,7-90.2,14-134.3,18.1c-34.7,3.2-69.9-1.9-101.6,11.3c123.5,7.7,248.6,5.7,371.1,5.3
			c56.4-0.2,119.5-23.3,175-4.5c-61.6,6.1-118.5,10.4-176.6,33.1c68.3-0.8,135.3,6,203.5,8.6c55.3,2.1,115.3,12.6,170.4,0.3
			c-23.7-19-70.9-4.6-101-10.4c-32.8-6.4-62.6-10.7-96.7-10.5c93.4-0.7,185.1-20.5,278.1-21.1c71.3-0.5,143.2,4.6,214.2,5.6
			c-10.4-39.2-181-7.3-215.8-8.6c-36.7-1.4-71.3-15.2-107.9-18.9c-33.2-3.3-69-1.3-101.5-7.7c60.9,7.8,125.4-0.6,186.8-0.5
			c42.8,0,85.5,2.3,127.6-6.7c0.6-1.5,0.8-3.1,0.5-4.7c40.7-2.2,104.3,7.8,137.5-24.1c-14.8-0.6-30.8-4.2-40.4-13.6
			c29.8-26.9,69.3-42,95.4-73c-29-6.8-80.8,7.2-112,8.3c-43.5,1.5-91.1-11.3-131,8.8c3.2,4.5,3.3,11.5,5.3,15
			c-52.6,18.4-104.6,13.7-159,15.7c-47.3,1.8-100.4,17.4-146.8,14.8c30.6-7.9,70.1-16.9,96.8-33.8c-24-12.6-67-7.3-95.5-13.4
			c-27.7-5.9-51.3-9-79.4-10.6c22.8-13.7,52.2-13.6,77.4-20.8C969.2,170.9,941.2,174.8,909.8,177.8z"/>
		<path id="XMLID_297_" class="st4" d="M-26.3,102.8c9.6,5.1,38.2-2.1,54.1,2.9c13.2,4.1,14.5,14.3,28.9,18.2
			c24.1,6.5,69.9-6,97.1-6c52.7,0,107.7,3.2,158.2,15c-46-2.9-90.9,4.1-137-0.1c-26.2-2.4-79.8-3.6-104.6,6.9
			c18.1,6.1,38.7-4.5,56.4-1.1c9.1,1.7,18.4,11.8,29.8,14.7c36.6,9.3,78.6-10.1,116.8-8.4c33.4,1.5,65,3.2,98.5,0
			c20.1-1.9,40.6-6.2,60.1,0c-69,20.5-155.2,12-227.2,12c-49.9,0-101.3,3.6-151-0.6c-41.1-3.5-84.1-13.7-125.4-11.6
			C-62.1,127.9-43.1,95.8-26.3,102.8z"/>
		<path id="XMLID_296_" class="st4" d="M495.8-8.2C537.7,0.3,583,6.7,620.2,26.2c4.9,2.6,1.3,10.2,9,13.6c9.3,4.1,28.8,0.4,39.1,1.4
			c17.3,1.7,30.9,5.1,47.2,7.5c51.8,7.8,106.6,8.2,159.2,14.3c48.3,5.6,77,27.1,122.2,29.2c53.8,2.5,108.7-4,161.9-0.9
			c-23.1,16.9-70.7,14.9-99,15.2c-46.6,0.5-98-4.5-146.2-6.9c-70.3-3.5-141,10.6-210.5,3.9c-46.8-4.5-84.9,10.5-129.5,8.8
			c17.2,4.8,38.3,0,56.9,2.2c17.4,2,35,7.7,52.9,9.3c50.5,4.4,101.1,4.1,151.8,5.8c84,2.8,169.6,0.6,251.6,0
			c74-0.5,151.2-6.2,225.6-2.9c51.3,2.3,104.8-0.9,154.9-9.1c-49,3.2-106.5-14.7-153.8-24c-40.1-7.9-82.6-3.2-124.2-3
			c17.9,0.3,35.3-8.2,52.8-11.5c-57.4-4.1-114.6-12.2-172.3-13.2c65.9-16.3,146-8.9,213.7-10.2c35.4-0.6,62.5,6.9,97.6-0.7
			c24.6-5.3,51.3-12.3,74.9-21.4c-17.3-9.2-4.2-24.5-11.9-36c-10.9-16.3-52.3-19.4-70.4-22.4c-56.7-9.5-116.5-7.6-173.9-7.7
			c-94.7-0.3-189.7-5.3-284.3-0.1c-110,6-220,10.3-329.8,18.3C560.3-12.3,512.1,0.5,495.8-8.2z"/>
		<g id="XMLID_172_">
			<g id="XMLID_933_">
				<path id="XMLID_1015_" class="st5" d="M57.3,553.5c7.5-50.3,27.6-98.8,57.9-139.6c9.1-12.2,19.1-23.8,29-35.3
					c12.6-14.6,24.4-30.9,40.8-41.1c2.2,1.6,6.1,4.3,8.3,5.9c-16.2,15.2-29.9,32.9-42.6,51.1C116.4,443.6,88.8,499.1,82,558.7
					C74.8,556.7,64.5,555.4,57.3,553.5z"/>
				<path id="XMLID_1012_" class="st6" d="M115.2,413.8c9.1-12.2,19.1-23.8,29-35.3c12.6-14.6,24.4-30.9,40.8-41.1
					c1.6,1.1,4,2.8,6.1,4.3c-33.5,25.4-64.7,53-84.4,93c-19.2,39.8-34.6,79.1-44.1,120c-1.9-0.4-3.7-0.8-5.3-1.2
					C64.8,503.1,84.9,454.7,115.2,413.8z"/>
				<path id="XMLID_1009_" class="st7" d="M164.8,365.2c2.2,0.4,4.2,1.3,6,2.3c-0.4,0.5-0.8,0.9-1.1,1.4
					C168.2,367.6,166.6,366.3,164.8,365.2z"/>
				<path id="XMLID_1006_" class="st7" d="M160.6,380.7c-0.9,1.2-1.8,2.4-2.7,3.7c-2.4-2.7-4.8-5.5-7.4-8
					C154.2,377,157.4,378.7,160.6,380.7z"/>
				<path id="XMLID_1003_" class="st5" d="M151.8,386.1c1.1,0.8,2.1,1.5,3.2,2.2c-0.3,0.4-0.6,0.8-0.8,1.2
					C153.2,388.6,152.4,387.5,151.8,386.1z"/>
				<path id="XMLID_1000_" class="st8" d="M151.5,393.3c-0.3,0.4-0.5,0.8-0.8,1.2c-0.6,0.9-1.2,1.8-1.8,2.6
					c-2.5-3.1-4.9-6.3-7.7-9.5C145.2,388.5,148.4,391,151.5,393.3z"/>
				<path id="XMLID_997_" class="st7" d="M116.4,432.5c2.5,1.4,5.2,2.3,7.9,3.7c-0.3,0.6-0.6,1.1-0.9,1.7
					C121,436,118.5,434.2,116.4,432.5z"/>
				<path id="XMLID_978_" class="st7" d="M109.8,439.3c3.6,1,7.1,2.7,10.5,4.2c-0.7,1.3-1.4,2.7-2.1,4
					C115,445.2,111.7,443.1,109.8,439.3z"/>
				<path id="XMLID_975_" class="st8" d="M103,479.9c-0.9,2.2-1.8,4.3-2.6,6.5c-3.9-3.3-7.6-6.8-10.7-11.1
					C94.3,476.5,98.7,478.2,103,479.9z"/>
				<path id="XMLID_972_" class="st7" d="M78.9,506.8c4.8,0.2,9.2,1.2,13.5,2.6c-0.7,2.4-1.5,4.9-2.1,7.4
					C86.1,513.9,82.1,510.8,78.9,506.8z"/>
				<path id="XMLID_969_" class="st7" d="M78.3,526.8c3.1-0.4,6.2,0,9.2,0.8c-0.3,1.4-0.6,2.7-0.9,4.1
					C84.1,529.6,81.6,527.6,78.3,526.8z"/>
				<path id="XMLID_966_" class="st5" d="M91.1,498.4c1.3,0.8,2.6,1.6,4,2.5c-0.1,0.4-0.2,0.7-0.4,1.1
					C93.4,501,92.1,499.9,91.1,498.4z"/>
				<path id="XMLID_963_" class="st8" d="M134.7,418.7c-0.9,1.4-1.7,2.8-2.6,4.2c-3.2-3.3-6.7-6.6-10-10.3
					C126.5,414.4,130.7,416.4,134.7,418.7z"/>
				<path id="XMLID_959_" class="st9" d="M198.6,345.2c22.5,10.7,40.3,30,51.4,52.3c11.2,22.3,16,47.3,16.6,72.2
					c0-3.4-2.1-6.5-3.8-9.3c-6.5-10.6-13-21.3-19.5-31.9c0.3-6,2-11.8,3.2-17.7c-3,5.4-5.7,10-7.3,16c-3.1-5.8-6.4-12.4-9.5-18.2
					c1.1-4.9,2.9-9.5,4-14.4c-2,3.4-5,6.6-6.8,10c-13.9-21.9-28.8-43.1-45.4-63C185.8,341.5,194.6,343.3,198.6,345.2z"/>
				<path id="XMLID_956_" class="st10" d="M181.1,345.8c48.7-20.4,106.1-18.7,153.6,4.4c-2.8,0.5-5.7,0.3-8.5-0.1
					c-12.4-1.9-25-2.5-37.5-1.9c-2.1-3.6-5.7-6.5-9-9.2c1.3,3,1.3,5.6,2.7,8.6c-6.1,0-11.9,1.3-17.9,2.3c-1.6-4.7-6.3-8.5-10.4-11.3
					c1.1,3,3.6,8.1,4.6,11.1c-1.6,0.2-3.8-0.1-5.4,0.1c-1.7-3.2-3.2-6.6-4.9-9.8c1.4,2.8,1.1,5.5,1.4,8.6
					C227.8,346.1,203.3,345.1,181.1,345.8z"/>
				<path id="XMLID_953_" class="st11" d="M185.6,343.2c-0.1,1.2-0.3,2.5-0.4,3.7c37.2-20.8,67.5-53.6,85.1-92.4
					C237.5,277.5,189.7,303.3,185.6,343.2z"/>
				<path id="XMLID_950_" class="st12" d="M185.6,342.7c9-20.1,16.4-41.3,18.6-63.2s-1-44.9-12.1-64c1.6,16.5,0.2,32.6-1.9,49
					c3.1,1.8,6.8,3,8.5,6.2c-2.3-1.4-5.1-1.1-7.7-1.2c-0.2,1.7-0.7,3.4-0.9,5.1c1.9,1.1,4.2,2.3,6.1,3.4c-3.4,0.2-5.8,0.8-9.1-0.2
					c2.2,0.5,4,2.6,5.6,4.2c-1.8,0-2.9,2.2-4.7,2.2C186.5,303.3,186.9,323.7,185.6,342.7z"/>
				<path id="XMLID_947_" class="st13" d="M186.1,344.1c0.7-12.9-3.2-25.7-8.1-37.7c-6.3-15.5-14.4-30.5-25.4-43.1
					c-11.1-12.6-25.3-22.7-41.5-27.2C142.2,265.1,167,306.1,186.1,344.1z"/>
				<path id="XMLID_944_" class="st14" d="M97.6,264.4c19.4,7.9,38.4,17.5,54.4,31c16.1,13.5,29.1,31.2,34.3,51.5
					c-0.4-3.5-2.1-4.8-4.5-7.3c-5.9-6.4-12.1-12.5-18.5-18.5c0.1-2.2,0.1-5.5,0.2-7.8c-0.6,2.3-1.3,4-2.6,5.9
					c-2.8-4-9.6-9.1-13.8-11.5c0.4-3.4,1-6.8,1.4-10.2c-1.7,2.8-3.4,5-5.1,7.8C128.6,290.9,113.3,277.7,97.6,264.4z"/>
				<path id="XMLID_941_" class="st13" d="M77.4,318.7c37.6-8.8,79,0.2,109.5,23.9C150.6,331,115.5,321.1,77.4,318.7z"/>
				<circle id="XMLID_940_" class="st5" cx="197.8" cy="347.3" r="8.7"/>
				<circle id="XMLID_937_" class="st15" cx="184.5" cy="349.1" r="6.6"/>
				<circle id="XMLID_934_" class="st16" cx="182.9" cy="337" r="6.6"/>
			</g>
			<g id="XMLID_182_">
				<path id="XMLID_930_" class="st5" d="M59.3,556c-8.2-33-8.1-68,0.2-101c2.5-9.9,5.7-19.6,8.9-29.2c4.1-12.2,7.2-25.3,14.7-35.8
					c1.8,0.4,4.9,1.1,6.6,1.5c-6.1,13.5-10.1,27.9-13.3,42.4c-8.6,39.1-11.6,80.4-0.6,119C71,553.6,64.2,555.4,59.3,556z"/>
				<path id="XMLID_927_" class="st6" d="M59.5,455c2.5-9.9,5.7-19.6,8.9-29.2c4.1-12.2,7.2-25.3,14.7-35.8c1.3,0.3,3.2,0.7,4.9,1.1
					c-14.2,24.2-26.4,49.2-28.5,78.9c-1.8,29.5-1.3,57.7,3.3,85.4c-1.3,0.2-2.5,0.4-3.6,0.6C51.1,523,51.2,488,59.5,455z"/>
				<path id="XMLID_924_" class="st7" d="M77.8,412.4c1.5-0.3,2.9-0.2,4.3-0.1c-0.1,0.4-0.2,0.8-0.3,1.2
					C80.5,413,79.2,412.6,77.8,412.4z"/>
				<path id="XMLID_921_" class="st7" d="M79.1,423c-0.3,1-0.5,2-0.7,2.9c-2.2-1.1-4.3-2.2-6.6-3.1C74.2,422.4,76.7,422.6,79.1,423z
					"/>
				<path id="XMLID_918_" class="st5" d="M75.1,428.6c0.9,0.2,1.7,0.4,2.5,0.5c-0.1,0.3-0.2,0.6-0.2,0.9
					C76.6,429.8,75.8,429.3,75.1,428.6z"/>
				<path id="XMLID_915_" class="st8" d="M76.7,433.1c-0.1,0.3-0.1,0.6-0.2,0.9c-0.2,0.7-0.3,1.4-0.5,2.1c-2.3-1.3-4.6-2.7-7.2-3.9
					C71.6,431.7,74.2,432.5,76.7,433.1z"/>
				<path id="XMLID_912_" class="st7" d="M65,466.3c1.9,0.2,3.8,0.1,5.8,0.3c-0.1,0.4-0.1,0.8-0.2,1.3
					C68.8,467.3,66.8,466.8,65,466.3z"/>
				<path id="XMLID_909_" class="st7" d="M62.7,472.1c2.5-0.3,5-0.2,7.6-0.1c-0.1,1-0.2,2-0.3,3C67.4,474.5,64.8,474,62.7,472.1z"/>
				<path id="XMLID_906_" class="st8" d="M68.8,499c0,1.6,0,3.1,0,4.7c-3.2-1.1-6.4-2.3-9.4-4.1C62.6,499.1,65.7,499,68.8,499z"/>
				<path id="XMLID_903_" class="st7" d="M60.8,521.7c3-1.1,6-1.6,9-1.9c0.2,1.7,0.3,3.4,0.6,5.1C67,524.3,63.7,523.4,60.8,521.7z"
					/>
				<path id="XMLID_900_" class="st7" d="M65.5,534.2c1.8-1.1,3.8-1.5,5.9-1.8c0.1,0.9,0.3,1.9,0.5,2.8
					C69.8,534.5,67.7,533.9,65.5,534.2z"/>
				<path id="XMLID_897_" class="st5" d="M66.2,513.4c1,0.2,2,0.3,3.1,0.5c0,0.3,0,0.5,0.1,0.8C68.2,514.5,67.2,514.1,66.2,513.4z"
					/>
				<path id="XMLID_894_" class="st8" d="M72.8,453.1c-0.2,1.1-0.4,2.2-0.5,3.3c-2.8-1.2-5.8-2.3-8.8-3.8
					C66.6,452.5,69.7,452.7,72.8,453.1z"/>
				<path id="XMLID_891_" class="st9" d="M93.6,391.4c16.6,0.9,32.5,8.3,45.1,19.2s21.9,25.2,28.6,40.4c-0.9-2.1-2.9-3.5-4.7-4.8
					c-6.7-4.9-13.4-9.8-20.2-14.7c-1.4-3.8-1.8-7.8-2.6-11.7c-0.5,4.1-0.9,7.6-0.4,11.7c-3.4-2.8-7.1-6-10.5-8.8
					c-0.6-3.3-0.6-6.6-1.2-9.9c-0.4,2.6-1.4,5.3-1.6,7.9c-14.2-10-28.8-19.3-44.1-27.4C84.7,392.4,90.6,391.3,93.6,391.4z"/>
				<path id="XMLID_888_" class="st13" d="M82.9,396.3c24.9-25,60.8-38.6,96-36.4c-1.6,1-3.5,1.6-5.3,2.1c-8.1,2-16.1,4.8-23.6,8.4
					c-2.2-1.7-5.2-2.6-7.9-3.4c1.6,1.5,2.3,3.1,3.8,4.6c-3.8,1.5-7,3.8-10.5,6c-2.2-2.5-6.1-3.6-9.3-4.4c1.4,1.6,4.3,4.1,5.7,5.7
					c-1,0.6-2.3,0.9-3.3,1.5c-1.9-1.6-3.6-3.3-5.5-4.8c1.6,1.4,2.1,3.1,3.1,5C111.9,384.6,96.4,390.2,82.9,396.3z"/>
				<path id="XMLID_885_" class="st11" d="M85.1,393.5c0.2,0.8,0.5,1.6,0.7,2.4c17.7-22.3,28-50.3,29.1-78.8
					C100.4,339.7,77.4,367.8,85.1,393.5z"/>
				<path id="XMLID_880_" class="st12" d="M84.9,393.2c0.4-14.7-0.4-29.7-4.6-43.8c-4.2-14.1-12.1-27.5-23.7-36.5
					c5.2,9.8,8.4,20.1,11.3,30.8c2.4,0.3,5,0.1,6.8,1.7c-1.8-0.3-3.4,0.6-5.1,1.2c0.3,1.1,0.4,2.3,0.7,3.4c1.5,0.2,3.2,0.3,4.7,0.5
					c-2.1,1-3.4,2-5.7,2.2c1.5-0.3,3.1,0.6,4.5,1.2c-1.1,0.5-1.2,2.1-2.3,2.6C75.5,368.6,80.9,381.1,84.9,393.2z"/>
				<path id="XMLID_877_" class="st13" d="M85.6,393.9c-2.9-8.2-8.5-15-14.6-21.2c-7.9-8-16.6-15.2-26.7-20.2s-21.4-7.6-32.5-6.2
					C38.4,356.3,64.1,375.3,85.6,393.9z"/>
				<path id="XMLID_872_" class="st14" d="M10.6,367.2c14,0,28.2,1,41.5,5.3s25.9,11.8,34.3,23c-1.1-2.1-2.5-2.4-4.6-3.4
					c-5.3-2.4-10.7-4.7-16.1-6.7c-0.5-1.4-1.3-3.4-1.8-4.8c0.2,1.6,0.2,2.8-0.1,4.3c-2.7-1.8-8.3-3.2-11.5-3.6
					c-0.6-2.2-1.1-4.4-1.7-6.6c-0.3,2.2-0.8,4-1.2,6.1C36.5,375.7,23.7,371.4,10.6,367.2z"/>
				<path id="XMLID_859_" class="st13" d="M12,405.9c21-15,48.9-20,73.7-13.1C60.3,394.8,36.1,397.7,12,405.9z"/>
				<circle id="XMLID_852_" class="st5" cx="93.6" cy="392.9" r="5.8"/>
				<circle id="XMLID_295_" class="st15" cx="85.9" cy="397.4" r="4.4"/>
				<circle id="XMLID_287_" class="st16" cx="81.8" cy="390.4" r="4.4"/>
			</g>
		</g>
		<path id="XMLID_292_" class="st9" d="M-39,594.8h405.8c-29.9-14.6-43.8-18.6-64.5-43.5c-10.3-12.4-15.6-23.6-33.2-28.3
			c-26.5-7-55,16.4-79.5,11.8c-12.9-2.4-16.8-13.7-29.7-20.3c-14.7-7.6-26.4-4.4-41.5-7.3c-11.8-2.3-17.2-10.6-34.3-8.5
			c-12.3,1.5-26.1,11.9-36.1,9.9c-5.2-1-21-18.5-29-21.8c-16.4-6.7-30.4-6-48.2-6.1C-50.7,505.1-39,561.3-39,594.8z"/>
		<rect id="XMLID_829_" y="559.1" class="st17" width="1400" height="420.9"/>
		<g id="XMLID_835_">
			<path id="XMLID_839_" class="st18" d="M0,559.1V654c30.6,5.5,65.9-0.3,96.9,0.9c90.1,3.3-12.9,48.5,41.9,68.3
				c11.9,4.3,27.4-3.4,39.2,0.5c10.1,3.3,11,14.5,20.6,18.1c59.8,23,151.1-4.6,213.5-3.1c27,0.6,42.1,13.2,67.1,20.5
				c41.1,12.1,85.6-3.6,126.5,12.5c21.5,8.5,38.6,24.2,60.9,30.9c45.8,13.7,97.5,8.2,144.7,8.2c109.9,0,231.7,1.2,333.3,46.5
				c81.9,36.5,166.1,43.7,255.5,43.6V559.1H0z"/>
		</g>
		<linearGradient id="XMLID_26_" gradientUnits="userSpaceOnUse" x1="700" y1="558.5289" x2="700" y2="757.6832">
			<stop  offset="0" style="stop-color:#C5B0AD"/>
			<stop  offset="1" style="stop-color:#EEC6BA"/>
		</linearGradient>
		<path id="XMLID_831_" class="st19" d="M0,559.1v83.3c12.1,0.6,23.2,0.4,27.5,0.4c27.7,0,86.2-10.7,109.8,6.3
			c36.2,26.1-22.7,26.2-16.6,53.8c3.3,14.8,22.3,12.9,35,14.9c11.1,1.8,22.1,0.6,32.5,4.6c4.2,1.6,5.4,13.8,13.9,16.6
			c30,9.8,75.5-2.6,106.7-3.3c52.4-1.2,104.8,3.1,157.3,3.1c84.2,0,170.8-5.4,254.5,2.9c39.5,3.9,57.8,22.9,96.9,27.1
			c86,9.1,172.9-7.1,259.1-2.3c35.5,2,41.5,9.5,67.2,23.2c41.5,22.1,90.4,7,136.4,15.8c41.5,7.9,79.4,13.4,119.9,15.8V559.1H0z"/>
		<path id="XMLID_832_" class="st20" d="M0,642.1c0,0,1.5,0,4.3,0.1c2.9,0,7.1,0,12.7-0.1c2.8-0.1,5.9-0.2,9.3-0.2
			c3.4-0.1,7.1-0.3,11.1-0.6c8-0.6,17.2-1.6,27.6-2.4c10.4-0.9,21.9-1.7,34.5-1.4c3.2,0.1,6.4,0.2,9.7,0.6c3.3,0.3,6.7,0.7,10.1,1.4
			c3.4,0.6,6.9,1.5,10.3,2.8c0.9,0.3,1.7,0.7,2.6,1l1.3,0.6c0.4,0.2,0.8,0.4,1.3,0.7c0.8,0.4,1.7,0.9,2.5,1.4l1.2,0.8l0.3,0.2
			l0.3,0.2l0.5,0.4c0.7,0.5,1.5,1.1,2.3,1.7c0.7,0.6,1.5,1.2,2.2,1.8c1.5,1.3,2.9,2.7,4.2,4.3c1.3,1.6,2.6,3.5,3.2,5.9
			c0.3,1.2,0.5,2.5,0.4,3.8c-0.1,1.3-0.5,2.6-1.1,3.7c-1.1,2.2-2.7,3.9-4.2,5.4c-1.6,1.5-3.2,2.7-4.9,3.9c-3.3,2.4-6.6,4.5-9.6,6.9
			c-3,2.4-5.7,5.1-7.3,8.1c-1.6,3-1.8,6.4-0.8,10c0.4,1.6,1.2,3.1,2.3,4.3c1.1,1.2,2.5,2.2,4.2,3c3.3,1.6,7.5,2.2,11.7,2.7
			c4.3,0.5,8.8,0.7,13.5,1.4c1,0.1,2.3,0.3,3.3,0.4c1,0.1,2.2,0.2,3.3,0.3c2.2,0.2,4.5,0.3,6.8,0.5c4.6,0.3,9.5,0.7,14.4,1.8
			c1.2,0.3,2.5,0.6,3.7,1l1.8,0.6c-0.1,0,0.6,0.2,0.7,0.3c0.1,0,0.3,0.1,0.7,0.3c0.3,0.2,0.6,0.4,0.8,0.6c0.2,0.2,0.4,0.3,0.6,0.5
			c0.7,0.7,1.2,1.4,1.6,2c0.4,0.6,0.8,1.2,1.1,1.8c0.6,1.2,1.2,2.2,1.7,3.3c1,2.1,2.1,3.9,3.4,5.3c0.6,0.7,1.3,1.3,2,1.7
			c0.3,0.2,0.7,0.4,1.1,0.6l0.3,0.1c0,0,0.3,0.1,0.1,0.1l0.9,0.2c2.3,0.6,4.8,1.4,7,1.7c1.1,0.2,2.2,0.4,3.4,0.6
			c1.2,0.2,2.4,0.3,3.5,0.4c9.5,1,19.4,0.7,29.4,0c10-0.7,20.2-2,30.6-3.3c2.6-0.3,5.2-0.6,7.8-0.9c2.6-0.3,5.3-0.5,7.9-0.8
			c2.6-0.3,5.3-0.4,8-0.6c2.7-0.1,5.4-0.2,8.1-0.3c21.4-0.2,43.4,0.5,65.6,1.5c22.2,1,44.8,2.3,67.6,2.9c2.9,0.1,5.7,0.1,8.6,0.2
			c2.9,0.1,5.7,0.1,8.6,0.1c5.7,0.1,11.5,0,17.3,0c11.6,0,23.2-0.1,34.8-0.3c23.3-0.5,46.9-0.9,70.5-1.4c23.6-0.5,47.4-0.7,71.1-0.3
			c5.9,0.1,11.9,0.3,17.8,0.4c5.9,0.2,11.9,0.5,17.8,0.7c5.9,0.4,11.9,0.6,17.8,1.1l8.9,0.7l4.4,0.3l4.5,0.5c2.9,0.3,5.9,0.9,9,1.4
			c1.5,0.2,3,0.6,4.4,0.9c1.5,0.3,3,0.6,4.4,1c5.8,1.5,11.5,3.4,17.1,5.4c5.6,2.1,11,4.3,16.5,6.4c5.4,2.1,10.8,4,16.3,5.7
			c2.7,0.8,5.5,1.6,8.2,2.2c1.4,0.3,2.8,0.7,4.1,0.9l4.2,0.8c1.4,0.3,2.8,0.4,4.2,0.6l4.2,0.5c2.9,0.2,5.7,0.5,8.6,0.7
			c2.9,0.2,5.8,0.5,8.6,0.7c2.8,0.1,5.7,0.3,8.5,0.4c2.8,0.1,5.7,0.4,8.5,0.4c2.8,0.1,5.7,0.1,8.5,0.2c22.7,0.4,45.2-0.4,67.4-1.5
			c22.2-1.2,44-2.5,65.4-3.5c5.4-0.2,10.7-0.4,16-0.6c5.3-0.2,10.6-0.3,15.8-0.4c5.2-0.1,10.5-0.1,15.7-0.1c2.6,0,5.2,0,7.8,0.1
			c2.6,0,5.2,0.1,7.7,0.1c1.3,0,2.6,0,3.8,0.1c1.3,0.1,2.6,0.1,3.8,0.2c2.5,0.1,5.1,0.2,7.6,0.3c1.3,0.1,2.5,0.1,3.8,0.2
			c0.7,0,1.2,0,1.9,0.1l1.9,0.1c1.2,0.1,2.5,0.2,3.7,0.3c1.3,0.1,2.5,0.3,3.8,0.4c2.6,0.2,5.1,0.6,7.6,1c2.5,0.5,5,0.9,7.5,1.5
			c5,1.1,9.8,2.7,14.4,4.8c4.6,2,8.9,4.4,13,6.7c4.1,2.4,8.1,4.7,12.1,6.9c1,0.6,2,1.1,3,1.7l0.7,0.4l0.4,0.2l0.3,0.2l1.5,0.8
			c2.1,1.1,4,1.9,5.9,2.8c4,1.7,8.1,3.1,12.3,4.2c8.3,2.3,16.7,3.5,25.1,4.2c8.3,0.7,16.6,0.9,24.6,0.9c16.1,0,31.6-0.2,46.2,1
			c3.6,0.3,7.2,0.7,10.7,1.2c3.5,0.5,7,1.1,10.3,1.8c6.6,1.3,13,2.6,19.1,3.7c12.3,2.3,23.6,4.2,33.8,5.9
			c20.5,3.3,36.6,5.1,47.7,6.2c5.5,0.6,9.8,1,12.6,1.2c2.9,0.2,4.3,0.4,4.3,0.4l0,0.8c0,0-1.5-0.1-4.4-0.2
			c-2.9-0.1-7.1-0.3-12.7-0.7c-11.1-0.7-27.4-2-48-4.6c-10.3-1.3-21.7-2.9-34.1-4.9c-6.2-1-12.6-2.1-19.3-3.2
			c-3.3-0.6-6.6-1.1-10.1-1.5c-3.4-0.4-6.9-0.7-10.5-0.9c-14.3-0.9-29.5-0.2-45.8,0c-8.1,0.1-16.5,0.1-25.2-0.5
			c-8.6-0.6-17.5-1.7-26.4-4c-4.4-1.2-8.9-2.6-13.2-4.4c-2.2-0.9-4.5-1.9-6.5-2.9l-1.5-0.8l-0.5-0.2l-0.4-0.2l-0.8-0.4
			c-1-0.5-2.1-1.1-3.1-1.6c-4.1-2.2-8.2-4.5-12.3-6.8c-4.1-2.3-8.2-4.4-12.4-6.2c-4.2-1.8-8.6-3.1-13.1-4.2
			c-2.3-0.5-4.6-0.9-6.9-1.3c-2.4-0.3-4.7-0.7-7.1-0.9c-1.2-0.1-2.4-0.2-3.6-0.3c-1.2-0.1-2.5-0.2-3.7-0.2l-1.9-0.1
			c-0.5,0-1.2-0.1-1.8-0.1c-1.2,0-2.5-0.1-3.7-0.1c-2.5-0.1-5-0.2-7.5-0.3c-1.3,0-2.5-0.1-3.8-0.1c-1.3,0-2.5,0-3.8,0
			c-2.5,0-5.1-0.1-7.6-0.1c-2.5,0-5.1-0.1-7.7,0c-5.1,0.1-10.3,0.1-15.5,0.2c-5.2,0.2-10.4,0.2-15.7,0.4c-5.3,0.2-10.6,0.4-15.9,0.6
			c-21.3,0.9-43.1,2.3-65.4,3.2c-22.2,0.9-44.9,1.6-68,0.9c-5.8-0.2-11.5-0.3-17.3-0.7c-2.9-0.2-5.8-0.3-8.7-0.5
			c-2.9-0.2-5.8-0.5-8.6-0.8c-2.9-0.3-5.8-0.5-8.7-0.8l-4.4-0.6c-1.5-0.2-3-0.4-4.4-0.7l-4.4-0.8c-1.5-0.3-2.9-0.7-4.4-1
			c-2.9-0.7-5.8-1.6-8.6-2.4c-11.4-3.6-22.2-8.4-33-12.6c-10.8-4.2-21.9-7.5-33.3-9l-4.3-0.6l-4.4-0.4l-8.8-0.9
			c-5.9-0.6-11.8-1-17.6-1.5c-5.9-0.4-11.8-0.8-17.7-1.1c-5.9-0.3-11.8-0.6-17.7-0.8c-23.7-0.9-47.3-1.1-71-1.1
			c-11.8,0.1-23.6,0.2-35.3,0.3c-11.7,0.2-23.5,0.4-35.1,0.5c-23.3,0.3-46.5,0.7-69.4,0.4c-22.9-0.3-45.5-1-67.7-1.4
			c-22.2-0.5-44-0.6-65.3,0.1c-10.5,0.3-20.9,1.8-31.2,3.1c-10.3,1.4-20.6,2.8-30.9,3.7c-10.3,0.9-20.5,1.2-30.8,0.2
			c-1.3-0.1-2.5-0.3-3.8-0.4c-1.3-0.2-2.6-0.5-3.9-0.7c-2.7-0.4-4.9-1.2-7.3-1.8l-0.9-0.2c-0.5-0.1-0.5-0.2-0.7-0.2l-0.6-0.2
			c-0.7-0.3-1.5-0.7-2.2-1.1c-1.4-0.9-2.5-1.9-3.5-3c-1.9-2.2-3.2-4.6-4.3-6.8c-0.6-1.1-1.1-2.2-1.6-3.1c-0.5-0.9-1-1.8-1.4-2.1
			c0-0.1-0.1-0.1-0.1-0.1c-0.1-0.1,0,0,0.1,0.1c0.2,0.1,0,0-0.1-0.1c-0.2-0.1,0.2,0.1-0.2-0.1l-1.5-0.5c-1-0.3-2.1-0.6-3.1-0.9
			c-4.2-1-8.7-1.4-13.3-1.7c-2.3-0.2-4.6-0.3-6.9-0.5c-1.2-0.1-2.3-0.2-3.5-0.4c-1.3-0.1-2.3-0.3-3.5-0.5c-4.2-0.6-8.7-0.9-13.3-1.4
			c-2.3-0.3-4.6-0.6-6.9-1.1c-2.3-0.5-4.6-1.2-6.9-2.3c-2.3-1.1-4.5-2.6-6.2-4.6c-1.8-2-3-4.4-3.7-7c-0.6-2.3-0.9-4.9-0.7-7.4
			c0.2-2.5,1-5,2.1-7.2c2.3-4.4,5.8-7.4,9.1-10c3.4-2.6,6.8-4.8,9.9-7c1.6-1.1,3.1-2.2,4.4-3.4c1.3-1.2,2.4-2.4,3-3.6
			c0.6-1.2,0.7-2.3,0.4-3.5c-0.3-1.3-1.1-2.6-2.1-3.9c-1-1.3-2.2-2.5-3.5-3.7c-0.6-0.6-1.3-1.1-2-1.7c-0.7-0.5-1.3-1.1-2.1-1.6
			l-0.5-0.4c-0.1-0.1-0.2-0.2-0.2-0.2l-0.3-0.2l-1-0.7c-0.7-0.5-1.4-0.9-2.1-1.3c-0.4-0.2-0.7-0.4-1.1-0.6l-1.1-0.5
			c-0.7-0.4-1.5-0.7-2.3-1c-3.1-1.2-6.3-2.1-9.5-2.8c-6.4-1.4-12.8-2-19-2.4c-12.3-0.6-23.8-0.1-34.1,0.4
			c-10.3,0.5-19.6,1.2-27.7,1.5c-4,0.2-7.8,0.2-11.2,0.1c-3.4,0-6.5-0.1-9.3-0.1c-5.6-0.1-9.8-0.4-12.7-0.5C1.5,643,0,642.9,0,642.9
			L0,642.1z"/>
		<path id="XMLID_60_" class="st21" d="M111.9,858.2c2.3-3.7,4.5-7.3,6.8-11c1.7-2.8,3.5-5.7,3.7-9c0-0.4,0-0.8-0.2-1.2
			c-0.4-0.6-1.2-0.7-1.9-0.7c-4.4,0.1-8.5,2.1-12.4,4c-3.9,1.9-7.3,3.3-11.2,5.1c-4-0.7-6.7-4.4-9.5-7.4c-2.4-2.6-5.2-4.9-8.3-6.7
			c-3.5-2.1-7.6-3.7-11.5-2.6c-0.5,0.1-1.1,0.4-1.4,0.8c-0.4,0.5-0.3,1.2-0.3,1.8c0.8,8.9,3.2,17.6,6.9,25.6
			c-11,3-21.6,8.8-29.2,17.2c1.5,1.4,3.8,1.6,5.9,1.1c2-0.4,3.9-1.5,5.7-2.3c3.2-1.5,6.7-2.6,10.2-3.3c3.2-0.6,6.5-0.9,9.6,0
			c-4.8,8.1-7.2,18.1-8.1,27.4c-0.2,2.1,0.3,4.9,2.3,5.2c1.5,0.2,2.7-1.2,3.5-2.4c3.5-5.3,6.1-11.2,9.5-16.5
			c3.4-5.3,8.1-10.3,14.1-12.3c4.4-1.5,9.2-1.3,13.8-1.1c6.6,0.3,13.2,0.6,19.7,0.9c1,0,2.1,0.1,2.9-0.6c1.8-1.5-0.1-4.4-2-5.8
			C125.1,860.5,118.5,859.1,111.9,858.2z"/>
		<linearGradient id="XMLID_27_" gradientUnits="userSpaceOnUse" x1="702.178" y1="45.7747" x2="702.178" y2="216.8181">
			<stop  offset="0.4561" style="stop-color:#DCD2DA"/>
			<stop  offset="1" style="stop-color:#EFD0CD"/>
		</linearGradient>
		<path id="XMLID_294_" class="st22" d="M1428.9,171.8c-82.4,0-164.6-3-246.5-3.1c-13.1,0-40.8,9.7-53.2,5.6
			c-10.3-3.4-12.5-13.4-15.2-14.6c-31.7-14.8-62.3-14.9-98.7-14.9c-110.7,0.3-230.2-4.9-338.7-26.2c-23.3-4.6-47.8-10.8-70-18.6
			c-21.2-7.4-34.8-4.8-56.4-9.1c-17.5-3.5-25.4-15.6-41.7-21.1c-23.5-8-54.3-7.7-78.9-9c-65.2-3.4-123.8-22.3-187.2-30.1
			c-34.6-4.3-58.9-19.8-94.5-26.9C96.4-6.5,40.3-8.9-11.3,0.8c-11.5-1.1-60.9,27.9-60.3,40.4C-70.3,64.5-29,49-43.9,81.3
			C8.8,79.6,65.7,96.6,119.2,99.1c64.3,3.1,127.3,11.6,190.5,15.7c24.9,1.6,57.8-6.8,81.1,2.9c9,3.8,6.9,13.6,15.1,17.5
			c14.9,7,37.9,7.3,54,11.9c32,9.1,60.7,14.6,95,15.7c22.8,0.8,82.9-5.1,93.4,14.5c-75.6,4.7-152.1,1.3-227.7,7.2
			c40.6,21.9,123.8,11.8,170.9,14.1c105,5.1,213.4,9.4,317.9-3.5c62-7.7,115.7,10,177.4,9.9c88.5-0.2,174.5,5.9,263.6,5.9
			c19.9,0,103.7,9.8,117.8-5.6C1495.2,176,1442.6,171.8,1428.9,171.8z"/>
		<g id="XMLID_23_">
			<g id="XMLID_16_">
				<path id="XMLID_617_" class="st23" d="M713.2,256c-17.2-0.3-34.2-6-48-16.2c-5.9-4.3-11.7-11-9.9-18c1.2-4.8,5.8-8.3,10.6-9.5
					c4.8-1.2,9.9-0.5,14.8,0.5c5.6,1.1,11.2,2.5,16.6,4.2c-0.5-8.3,2.5-17.4,8-23.6c2.6-3,6.9-5.7,10.4-3.8c2.2,1.1,3.2,3.6,3.8,6
					c1.8,7.1,0.6,14.5-0.6,21.7C716.7,230.5,715.5,242.7,713.2,256z"/>
				<path id="XMLID_614_" class="st23" d="M728.4,143.2c-3-4.2-5.6-8.6-7.7-13.3c-1.5-3.2-2.8-6.6-3-10.1c-0.2-3.5,0.9-7.3,3.5-9.7
					c2.1-1.9,5.5-2.7,7.9-1.1c1.4,1,2.2,2.8,2.8,4.4c1,2.9,1.6,5.9,1.9,9c5.4-5.5,13.3-9.1,21-9.2c1.3,0,2.7,0.1,3.8,0.8
					c2.1,1.3,2.4,4.5,1.3,6.7s-3.2,3.8-5.2,5.2C746.3,131.9,736.8,137.8,728.4,143.2z"/>
				<path id="XMLID_611_" class="st23" d="M696.8,73.7c-8,0.6-16.6,1-23.1-3.6c-1.3-0.9-2.4-2-3-3.4c-1-2.5,0.1-5.5,2.1-7.2
					s4.9-2.3,7.6-2.2c2.7,0.2,5.3,1,7.8,1.8c1.1-2.2,1.5-5.1,2.8-7.2c1.1-1.6,2.3-3.2,4.2-3.8c2.3-0.7,4.9,0.6,6.2,2.6
					c1.4,2,1.7,4.5,1.7,6.9C703,63.6,700.8,69.1,696.8,73.7z"/>
			</g>
			<g id="XMLID_261_">
				<g id="XMLID_229_">
					<path id="XMLID_237_" class="st24" d="M969.4,446.1c-4.6-14.6-10.9-28.7-18.7-41.9l4.2-2.5c7.9,13.5,14.4,28,19.1,42.9
						L969.4,446.1z"/>
				</g>
				<g id="XMLID_230_">
					<path id="XMLID_236_" class="st24" d="M983.5,434.7c-3.8-4.8-8-9.5-12.1-14c-8.3-9.2-17-18.6-22.3-30.2l4.5-2.1
						c5,10.9,13,19.6,21.4,28.9c4.2,4.6,8.5,9.3,12.4,14.3L983.5,434.7z"/>
				</g>
				<g id="XMLID_231_">
					<path id="XMLID_235_" class="st24" d="M989,415.4c-12.1-4-23.2-11.6-31.4-21.4l3.8-3.1c7.5,9.1,17.9,16.2,29.1,19.9L989,415.4z
						"/>
				</g>
				<g id="XMLID_232_">
					<path id="XMLID_234_" class="st24" d="M989.5,428.6c-13.7-11.3-26.4-24-37.8-37.5l3.8-3.2c11.2,13.4,23.7,25.8,37.2,36.9
						L989.5,428.6z"/>
				</g>
				<linearGradient id="XMLID_28_" gradientUnits="userSpaceOnUse" x1="932.2408" y1="391.5447" x2="959.5371" y2="391.5447">
					<stop  offset="0" style="stop-color:#ED8DA9"/>
					<stop  offset="1" style="stop-color:#EDBBA9"/>
				</linearGradient>
				<path id="XMLID_196_" class="st25" d="M940,402.7c-1.7,0.4-3.6,0.7-5.1-0.2c-2.6-1.4-2.8-5.1-2.6-8.1c0.2-3,0.5-6.3,2.4-8.7
					c1.3-1.6,3.1-2.6,5-3.5c2.1-1,4.3-2,6.7-2.2c6.4-0.7,16.5,3.2,12.2,11C955.1,397,946.4,401.2,940,402.7z"/>
				<path id="XMLID_227_" class="st26" d="M971.8,398.7c-18.9-17.8-30.9-42-35.8-67.4c-12.2,8.8-24.4,17.6-36.7,26.4
					c23.7,10.9,43.3,29.2,54.6,52.7c0.5-2.2,2-4.4,2.5-6.6c0.3-1.5,0.7-3,1.6-4.3c1.3-1.7,3.6-2.6,5.8-2.5
					C966,397.1,969.8,397.8,971.8,398.7z"/>
				<path id="XMLID_199_" class="st27" d="M445.7,909.5c-8.4,2.4-18.6,1.3-24.6,7.7c-0.9,0.9-1.6,2.2-1.3,3.5
					c0.5,1.8,2.8,2.1,4.7,2.1c12.9,0,25.9,0,38.8,0c2.6,0,5.6-0.2,7.1-2.4c1.4-2,0.6-4.7-0.5-6.9c-1.1-2.2-2.6-4.3-2.6-6.7
					c0-2.4,1.3-4.5,2.4-6.7c1.9-3.6,3.2-7.5,3.9-11.5c0.4-2.1,0.3-4.7-1.5-5.8c-1.5-1-3.7-0.3-4.9,1s-1.8,3.2-2.3,4.9
					C462.1,899,456.5,906.5,445.7,909.5z"/>
				<path id="XMLID_201_" class="st27" d="M741.6,893.8c6.9,1.5,14.1,0.7,21.2,0.2c3.7-0.3,7.7-0.4,10.7,1.7
					c3.3,2.4,4.3,6.7,5.1,10.7c-8,2.1-16.1,4.1-24.3,4.4s-16.8-1.5-23.4-6.4c1.5,2.1,2.6,4.6,3.1,7.2c-6.7,0.7-13.5,1-20.3,0.8
					c-1.1-5.1,0.6-10.3,1.5-15.4c1-5.1,0.9-11-2.8-14.6c-0.8-0.8,7.3-2.5,8.3-2.3c2.7,0.5,3.5,1.5,5.2,3.3
					C730.6,888.6,734.4,892.3,741.6,893.8z"/>
				<path id="XMLID_197_" class="st28" d="M456.7,900.1c4.2,0.9,8.4,1.9,12.6,2.8c1.2,0.3,2.5,0.5,3.7,0c0.9-0.4,1.5-1.4,2.1-2.2
					c11.1-17.1,22.2-34.1,33.3-51.2c8.7-13.4,17.4-26.8,24.6-41.1c4.5-9.1,8.4-18.5,11.6-28.1c0.5-1.6,1-3.3,0.5-4.8
					c-0.5-1.4-1.9-2.4-3.2-3.2c-12.2-7-29.5-3.8-41.4,2.6c-10.8,5.9-12.5,19.1-16.3,30.2C481.5,812.8,455.3,899.8,456.7,900.1z"/>
				<path id="XMLID_200_" class="st28" d="M653.1,643.6c8.5,49.2,37.8,92.2,54.3,139.3c3.7,10.7,6.8,21.5,9.9,32.4
					c6.3,22.1,15.1,66.5,13.7,67c-7.4,2.8-14.8,5.5-22.1,8.3c-15-48.5-44.1-92.9-68-137.8c-9.1-17.1-17.7-34.9-19.6-54.1
					c-2-19.2,3.7-40.3,18.9-52.2C644,643.6,648.4,643.8,653.1,643.6z"/>
				<linearGradient id="XMLID_29_" gradientUnits="userSpaceOnUse" x1="433.918" y1="740.209" x2="703.9679" y2="740.209">
					<stop  offset="0" style="stop-color:#F4CB9A"/>
					<stop  offset="1" style="stop-color:#FCECDB"/>
				</linearGradient>
				<path id="XMLID_186_" class="st29" d="M452,633.1c3.3,14.3,4,29.7-0.8,43.6c-3.2,9.3-8.8,17.6-12.7,26.6c-4,9-6.4,19.4-2.9,28.6
					c6.9,18.4,32.3,22.5,43,39c3.3,5.1,4.9,11,6.7,16.8c4.9,15.8,13.8,33.5,30.2,36.1c13.3,2.1,26.6-6.9,39.9-4.6
					c17.4,3.1,27.2,24.2,44.6,27.6c10.5,2.1,21.1-3.1,29.8-9.3c5.8-4.2,12.2-9.3,19.3-8.4c6.7,0.9,10.4,8.1,16.3,11.2
					c20.8,11,37-0.2,38.4-31.1c1.5-30.9-42.8-48.1-49.4-51.4c-6.6-3.3-114-31.1-119.8-39.8C529,709.4,452,633.1,452,633.1z"/>
				<path id="XMLID_226_" class="st30" d="M824.2,594.6c-15.9-4.3-32.7-3.1-49.1-4c-29-1.6-58.7-10.4-79.2-31
					c-1.5-1.5-3-3.1-3.6-5.1c-0.5-1.5-0.5-3.1-0.5-4.7c0.5-23.9,7.8-47.5,19.6-68.3c11.8-20.8,28-38.9,46.3-54.3
					c5.8-4.8,11.8-9.5,18.8-12.4s14.9-4,22-1.5c9.3,3.2,15.8,12,19.2,21.2s4.2,19.2,5.7,29c3.6,23.6,11.5,46.4,21.9,67.9
					c5.2,10.6,11,20.9,14.3,32.2c2.9,9.9,3.7,20.2,3.5,30.5c-0.1,4,0.3,26.7-4,27.8c-1.1,0.3-11.2-14.5-13.7-16.6
					C839.2,600.2,831.8,596.7,824.2,594.6z"/>
				<path id="XMLID_225_" class="st31" d="M871.3,549.3c4.7,10.1,9.3,20.5,10.3,31.6c1.3,13.4-2.9,27.1-10.3,38.3
					s-18,20.2-29.7,26.9c13-18.5,17.7-42.6,12.5-64.7c-6.6-27.9-27.4-50.2-38.3-76.7c-9.6-23.4-11.2-49.2-12.5-74.5
					c-0.4-7.4,0.9-27,13.5-23.7c8.5,2.2,8,20,9.2,26.5c4.8,26.1,14.9,50.8,25.8,74.9C858.2,521.8,864.9,535.5,871.3,549.3z"/>
				<path id="XMLID_222_" class="st32" d="M637.2,468.2c-4,2.7-7.9,5.9-9.5,10.4c-1.6,4.5-0.6,9.7,1.4,14
					c6.2,12.9,20.8,19.5,34.6,23.3c6.7,1.8,13.7,3.3,20.7,2.7c7-0.6,14-3.5,18.3-9.1c6.7-8.7,5.2-21,3.2-31.8
					c-1.2-6.2-2.5-12.7-6.3-17.7C686.9,443.7,650.3,459.5,637.2,468.2z"/>
				<path id="XMLID_223_" class="st32" d="M790.7,477.5c0.9,9.1-0.1,18.4-1.8,27.4c-1.8,9.5-4.6,19.2-11,26.4
					c-5.4,6.1-13,9.8-20.7,12.4c-6.3,2.2-13.1,3.8-19.7,2.7c-9.1-1.6-16.7-8.3-21.1-16.4c-4.4-8.1-5.9-17.4-6.4-26.6
					c-0.8-15,1.6-31.3,12.2-41.8c6.2-6.2,14.5-9.5,22.5-12.9c6.9-2.9,14.4-7.6,21.9-8.6C783.3,437.9,789.6,465.2,790.7,477.5z"/>
				<path id="XMLID_192_" class="st33" d="M667.9,532c-11.6-2-20.7-11.1-27.8-20.4c-8-10.4-14.8-21.6-20.3-33.5
					c21.7,8.6,45.6,14.9,68.8,16.8c2-5.3,4.1-10.6,6.1-15.8c8.5,4,17.5,5.1,26.9,5.4c-1.6,5.3-1.6,10.1-0.3,15.5
					c7.1-1.8,14.1-3.4,21.4-4.4c3.3-0.4,6.6-0.8,9.8-0.3c3.4,0.5,6.7,1.9,10.2,1.4c33-4.3,66.4-16.1,93.9-34.8
					c7.6-5.1,14.6-11,21.5-17c16.9-14.8,33.2-30.3,48.7-46.6c-2.2-6-2.3-14.5,1.4-19.7s11.9-7.2,16.7-3.1c2,1.7,3.3,4.3,5.5,5.8
					c1.3,0.8,2.8,1.3,4.1,2.1s2.4,2.2,2.2,3.7c-0.3,2.3-3.2,3.1-5.5,3c-4-0.2-7.9-1.7-11-4.2c0.3,4,1.2,8.3,1.5,12.3
					c0.5,7.2-6.3,6.9-8.4,8.4c-15.7,37.3-43.3,71-74.3,97c-8.3,6.7-17.3,12.6-26.3,18.4c-18.5,11.8-37.3,23.7-58.2,30.5
					c-20.9,6.8-44.4,8.1-64.3-1.1c-1.3-0.5-2.5-1.2-3.4-2.2c-0.8-1.2-1-2.6-1.3-3.9C700.8,531.6,672.4,545.5,667.9,532z"/>
				<linearGradient id="XMLID_30_" gradientUnits="userSpaceOnUse" x1="689.3151" y1="488.4376" x2="721.5202" y2="488.4376">
					<stop  offset="0" style="stop-color:#ED8DA9"/>
					<stop  offset="1" style="stop-color:#EDBBA9"/>
				</linearGradient>
				<path id="XMLID_364_" class="st34" d="M720.6,496.8c-0.6-4.2-0.4-8.1,0.9-12.3c-9.4-0.3-18.3-1.4-26.9-5.4
					c-1.8,4.6-3.5,9.2-5.3,13.8C699,497.8,710.1,498.7,720.6,496.8z"/>
				<path id="XMLID_221_" class="st35" d="M824.7,369.9c4.4,9.1,8.5,18.6,10.3,28.6c1.8,10,1.2,20.7-3.4,29.8
					c-2.2,4.4-5.4,8.3-8.8,11.9C802.3,461.6,769.2,470,741,461c-1-0.3-2-0.7-2.4-1.6c-0.4-0.8-0.1-1.8,0.2-2.6
					c7.3-20.9,16.8-40.9,28.4-59.8c5.9-9.7,12.3-19,19.3-28c5.2-6.8,13.2-20.6,21.2-24c5.6-2.3,7.3,1,9,5.5
					C819.1,357.1,821.5,363.5,824.7,369.9z"/>
				<path id="XMLID_206_" class="st33" d="M791.1,418.5c2-1.1,4.6-2,6.5-0.7c1,0.7,1.5,1.8,1.8,2.9c1.2,4.7-1.6,9.4-4.8,13.1
					c-7.9,9.1-18.9,15.6-30.7,18.2c0.9-0.2,4-10.2,4.6-11.5c1.4-3,2.8-5.4,5-7.8C778.7,427.1,784.4,422,791.1,418.5z"/>
				<path id="XMLID_208_" class="st33" d="M675.8,423.6c0.9,2.1,2.1,4.4,4.2,5.5c1.9-4,3.7-8.1,4.7-12.5c0.7-3.4,0.9-7,0.9-10.5
					c0-3.1,0-6.3-1.4-9.1c-3.1-6.3-11.6-5.5-13.5,1.1C668.5,405.4,672.9,417.1,675.8,423.6z"/>
				<path id="XMLID_210_" class="st36" d="M663,417.5c-1.1,1.1-1.6,2.6-1.8,4.1c-0.7,5,2.4,10.2,7.1,12c1.7,0.6,3.6,0.8,5.4,0.2
					C687.3,428.9,671.5,409,663,417.5z"/>
				<path id="XMLID_212_" class="st36" d="M763.1,460.2c1.6,3,4.6,5.2,7.9,6.3c1.2,0.4,2.4,0.6,3.6,0.5c1.4-0.2,2.8-0.9,3.9-1.8
					c6.3-5.6,2.2-17.3-5.4-19.6C764.7,442.9,759.4,453.4,763.1,460.2z"/>
				<path id="XMLID_204_" class="st35" d="M664.7,363.5c-2.1,1.9-4.3,3.8-5.4,6.4c-1,2.5-0.9,5.2-0.5,7.9
					c2.2,17.6,13.6,33.7,29.4,41.7c7.5-22.9,22.2-44.1,22.5-68.2c0.1-11.7-9-21.4-20.4-13c-3.3,2.4-5.2,6.6-8,9.5
					C677,353.6,670.6,358.4,664.7,363.5z"/>
				<path id="XMLID_202_" class="st33" d="M683.6,406c-4.1,11.9-8.9,23.8-10.8,36.3c-1.9,12.5-0.5,26,6.9,36.3
					c11.5,15.9,35.7,19.4,53,10.1c14.4-7.7,23.8-22,32.7-35.8c5.5-8.5,11-17.1,15.2-26.4c4.3-9.4,7.2-19.4,8.9-29.6
					c2.8-17,2.4-34.8-3.6-50.9c-2.4-6.5-5.8-12.9-10.9-17.6c-4.2-4-9.5-6.7-15.1-8.5c-19.4-6.1-41.8,1.4-54.6,16.9
					c-7.4,9-8.2,17.8-10.5,28.9C691.8,379.4,688.1,392.8,683.6,406z"/>
				<path id="XMLID_203_" class="st35" d="M730.3,345.8c-13,8.7-28.3,13.8-43.9,14.6c15.6,6.1,33.2,6.8,49.2,2
					c16-4.8,30.4-15.1,40-28.8c4.7-6.6,8.4-14.3,8.8-22.4c0.4-8.1-3-16.7-9.8-21.1c-5.9-3.7-13.3-3.9-20.2-3.2
					c-36.1,3.7-68.7,30.8-78.9,65.6C693.2,356.4,714.1,354,730.3,345.8z"/>
				<path id="XMLID_205_" class="st35" d="M767.8,334.7c-5,20.4,1.6,43.3,16.7,57.9c-0.9,10.7-4.4,22-8.5,32
					c-2.5,6.3-5.1,12.6-7.6,18.9c7.1-8.3,14.1-15.1,21.2-23.5c7.9-9.3,15.9-18.8,21.1-29.8c6.4-13.4,8.3-28.4,9.6-43.2
					c0.8-9,1-18.9-4.8-25.8c-5.7-6.7-15.4-8.2-24.2-8.1c-6.3,0-13,0.8-18.1,4.5S764.5,329.4,767.8,334.7z"/>
				<path id="XMLID_213_" class="st37" d="M705.4,382.6c-3.5-0.8-6.7-3-8.6-6.1c-0.4,2.4,0.2,4.9,1.8,6.8c1.2,1.5,3,2.6,3.8,4.3
					c1.7,3.6,0.3,8-0.6,11.8c-0.5,2.2-1.3,4.3-1.5,6.5c-0.2,2.2,0.7,5,3,5.3c1.6,0.2,3-0.9,3.9-2.2c1-1.4,1.5-3.1,2-4.7
					c2-7.1,2-15.4-2.5-21.3C706.3,382.7,705.5,382.1,705.4,382.6z"/>
				<path id="XMLID_215_" class="st37" d="M754,390.7c-3.8-1.5-7-4.6-8.6-8.3c-0.9,2.7-0.6,5.5,0.8,7.9c1.1,1.9,2.9,3.4,3.5,5.5
					c1.2,4.3-1,9-2.7,13.2c-1,2.3-2.2,4.6-2.8,7.1c-0.6,2.5,0,5.7,2.4,6.5c1.7,0.5,3.6-0.5,4.8-1.8c1.3-1.4,2.3-3.2,3.1-5
					c3.4-7.6,4.9-16.9,0.9-24.2C755.1,390.9,754.2,390.2,754,390.7z"/>
				<linearGradient id="XMLID_90_" gradientUnits="userSpaceOnUse" x1="694.6165" y1="416.8367" x2="728.9055" y2="416.8367">
					<stop  offset="0" style="stop-color:#ED8DA9"/>
					<stop  offset="1" style="stop-color:#EDBBA9"/>
				</linearGradient>
				<path id="XMLID_214_" class="st38" d="M706,409.2c-2.6-0.9-5.4-2.3-8-1.2c-2.3,0.9-3.6,3.6-3.4,6.1c0.2,2.5,1.6,4.7,3.3,6.6
					c6.2,6.6,17.1,8.1,24.8,3.4c2.9-1.8,5.4-4.5,6-7.8c0.5-2.6-0.4-5.5-2.3-7.4c-1.2-1.3-3.5-2.3-5.3-1.7c-1.4,0.4-1.7,1.7-2.9,2.5
					C715.1,411.8,709.3,410.4,706,409.2z"/>
				<path id="XMLID_252_" class="st39" d="M721.2,407.1c0,0,0,0-0.1,0c-0.1,0-0.2,0.1-0.3,0.1c-0.3,0.1-0.6,0.4-0.9,0.8
					c-0.4,0.4-0.7,1-1.3,1.5c-0.1,0.1-0.3,0.2-0.5,0.3c-0.2,0.1-0.3,0.2-0.6,0.3c-0.4,0.2-0.8,0.3-1.3,0.5c-1.9,0.5-4.1,0.4-6.5-0.1
					c-1.2-0.2-2.3-0.6-3.5-1c-1.2-0.4-2.3-0.9-3.5-1.2c-1.2-0.4-2.4-0.6-3.5-0.4c-0.3,0-0.6,0.1-0.8,0.2c-0.1,0-0.3,0.1-0.4,0.1
					c-0.1,0.1-0.3,0.1-0.4,0.2c-0.5,0.2-0.9,0.6-1.3,1c-0.7,0.8-1.2,1.8-1.4,2.8c-0.2,1-0.2,2,0,2.9c0.4,1.8,1.2,3.1,1.8,4
					c0.6,0.9,1,1.4,1,1.4s-0.1-0.1-0.3-0.3c-0.2-0.2-0.5-0.5-0.8-0.9c-0.7-0.8-1.7-2.1-2.2-4c-0.2-0.9-0.4-2-0.2-3.1
					c0.2-1.1,0.6-2.2,1.4-3.2c0.4-0.5,0.9-0.9,1.5-1.2c0.1-0.1,0.3-0.1,0.4-0.2c0.2-0.1,0.3-0.1,0.5-0.2c0.3-0.1,0.6-0.2,1-0.2
					c1.3-0.2,2.6,0.1,3.8,0.4c1.2,0.4,2.4,0.9,3.5,1.3c1.1,0.4,2.3,0.7,3.4,1c2.2,0.5,4.4,0.7,6.2,0.3c0.9-0.2,1.6-0.5,2.3-0.9
					c0.6-0.4,1-1,1.4-1.4c0.4-0.4,0.8-0.6,1-0.7c0.1-0.1,0.2-0.1,0.3-0.1C721.2,407.1,721.2,407.1,721.2,407.1z"/>
				<path id="XMLID_217_" class="st37" d="M757.1,378c-2.3-2-4.6-4.1-7.3-5.5s-5.8-2.3-8.8-1.8c3.4-2,8.3-1.9,11.2,0.8
					c1.1,1,2,2.4,2.9,3.7C755.5,376,756.5,377.2,757.1,378z"/>
				<path id="XMLID_218_" class="st37" d="M717.1,370.6c-5.9-1.3-12.3-0.5-17.6,2.3c1.2-2.4,3.9-3.8,6.5-4.6
					c1.9-0.6,3.9-1.1,5.9-0.9C713.8,367.6,716.3,368.7,717.1,370.6z"/>
				<path id="XMLID_219_" class="st40" d="M747.2,445.6c-17.6,4.3-36.1-1.6-52.6-9.1c3.2,8.6,6.8,18.2,14.9,22.5
					c4.6,2.5,10,3,15.1,2.1c5.1-0.9,9.9-3.1,14.3-5.8C742.6,453.1,745.4,449.5,747.2,445.6z"/>
				<g id="XMLID_256_">
					<path id="XMLID_259_" class="st39" d="M747.2,445.6c-17.6,4.3-36.1-1.6-52.6-9.1c0.8,2,1.5,4.1,2.4,6.2
						c11.7,7.7,25.1,12.6,39,14.3c1-0.5,2-1.1,3-1.7C742.6,453.1,745.4,449.5,747.2,445.6z"/>
				</g>
				<path id="XMLID_68_" class="st28" d="M667.6,556.9c-19.5,21.1-44.2,37.9-72,45.2c-27.8,7.2-69.5,14.2-85.2-9.9
					c-18.8-28.9-31.2-64-36-98.1c21.4-14.9,43.4-29.1,65.9-42.3c20.3-11.9,47.7-8.3,71.2-9.9c22.2,34.8,33.1,76.7,57.4,110
					L667.6,556.9z"/>
				<linearGradient id="XMLID_277_" gradientUnits="userSpaceOnUse" x1="481.1768" y1="512.3925" x2="465.5874" y2="516.4949">
					<stop  offset="0" style="stop-color:#F4CB9A"/>
					<stop  offset="1" style="stop-color:#FCECDB"/>
				</linearGradient>
				<path id="XMLID_67_" class="st41" d="M471.8,492.8c0,0-27.6,13.4-6.8,32.5c20.8,19.1,31.6,1.5,28.3-10S488.8,494.5,471.8,492.8z
					"/>
				<polygon id="XMLID_69_" class="st42" points="524.7,493.2 540.5,497.5 540.5,525.4 607.8,572.1 603.4,484.6 583.6,478.6 
					589.2,465.5 566.2,443.8 546.5,444.5 529.8,458.1 				"/>
				<path id="XMLID_3_" class="st31" d="M594.5,543.9c-28.6-21.1-51.2-52.9-64.7-85.8c3.8-7.2,8.1-9,12.9-15.5
					c8.5,4.6,10.3-1.4,19.5,1.8C568.3,474.1,584.5,515.2,594.5,543.9z"/>
				<linearGradient id="XMLID_289_" gradientUnits="userSpaceOnUse" x1="530.7441" y1="532.2433" x2="511.104" y2="537.4118">
					<stop  offset="0" style="stop-color:#F4CB9A"/>
					<stop  offset="1" style="stop-color:#FCECDB"/>
				</linearGradient>
				<path id="XMLID_187_" class="st43" d="M524.1,519c0,0-29.1,2.6-23,15.1c6.2,12.5,51.5,17.3,45.4,4.3S542.1,518.9,524.1,519z"/>
				<linearGradient id="XMLID_290_" gradientUnits="userSpaceOnUse" x1="577.9709" y1="563.2317" x2="549.5927" y2="570.6996">
					<stop  offset="0" style="stop-color:#F4CB9A"/>
					<stop  offset="1" style="stop-color:#FCECDB"/>
				</linearGradient>
				<path id="XMLID_189_" class="st44" d="M565.9,547.7c0,0-10.7,7.1-7,14.5c3.7,7.4,48.4,26.4,40.6,9.1S585.1,536.1,565.9,547.7z"
					/>
				<g id="XMLID_2_">
					<path id="XMLID_15_" class="st33" d="M572.2,426.5c-2.8,2.4-6.5,3.7-9,6.4c-2.8,2.9-3.7,7-4.4,11c-1.4,9.1-1.4,18.5-0.1,27.6
						c-6.3-3-12.4-6.7-17.7-11.4c-3.7-19.4-10.3-38.7-20.3-55.7c8.5,5.1,17.6,9.1,27.1,11.8c7.9,2.3,16.1,3.7,23.3,7.5
						C570.5,423.8,572.9,426.5,572.2,426.5z"/>
					
						<linearGradient id="XMLID_293_" gradientUnits="userSpaceOnUse" x1="3580.6614" y1="422.5595" x2="3632.2813" y2="422.5595" gradientTransform="matrix(-1 0 0 1 4152.999 0)">
						<stop  offset="0" style="stop-color:#ED8DA9"/>
						<stop  offset="1" style="stop-color:#EDBBA9"/>
					</linearGradient>
					<path id="XMLID_211_" class="st45" d="M547.8,416.3c7.9,2.3,16.1,3.7,23.3,7.5c-0.7,0.1,1.7,2.7,1.1,2.8
						c-2.8,2.4-6.5,3.7-9,6.4c-2,2.1-3.1,4.9-3.7,7.8c-8.9-0.3-17.6-3.1-25.5-7.3c-3.5-10.1-7.9-19.9-13.2-28.9
						C529.2,409.5,538.3,413.5,547.8,416.3z"/>
					<path id="XMLID_8_" class="st27" d="M597.2,257.1c5.5,0.7,8.8,6.7,9.7,12.2c1.3,8.5-0.9,17.1-3.1,25.5
						c-3.7,13.8-7.4,27.7-12.5,41.1c0.7-1.8-10-19.4-11-22.8c-2.6-8.3-4-17-4-25.7C576.2,276,580.4,255,597.2,257.1z"/>
					<path id="XMLID_5_" class="st33" d="M590.6,279.6c2.6,16.1,0.8,32.6,2.5,48.8c2.5,23.5,12.3,45.5,17.3,68.6
						c2.2,10,2.8,22-4.6,29.1c-3.9,3.7-9.2,5.3-14.5,6.3c-28.7,5.4-60-6.3-78.1-29.3c-8-10.1-13.4-21.8-18.7-33.5
						c-8.2-17.9-16.5-35.8-24.7-53.7c-4.3-9.4-8.8-19.7-6.9-29.9c1.6-8.5,7.6-15.7,14.8-20.6c7.2-4.8,15.6-7.6,23.9-9.9
						c19.4-5.5,40.3-10.1,60.3-12.5C579.1,241.1,588.4,266.1,590.6,279.6z"/>
					<path id="XMLID_6_" class="st33" d="M596.4,313.9c1.8-2.5,4.7-4.5,7.8-4.5c0.6,0,1.2,0.1,1.7,0.4c0.7,0.4,1,1.2,1.2,2
						c0.8,2.9,0,6-0.9,8.9c-3.2,10.5-8.1,21.5-15.1,30C590.3,338.5,588.8,324.6,596.4,313.9z"/>
					<path id="XMLID_7_" class="st27" d="M481,283.8c2-2.1,4.8-3.3,7.6-4.4c19.8-7.4,41.5-9.2,62.2-5.2c4.1-3,8.3-6,12.4-8.9
						c1.8-1.3,3.7-2.7,5.9-3.3c3.4-1,7.2,0,10.2,2c3,2,7.2,3.4,9.1,6.4c4.9-8.5,11.5-16.6,14.5-25.9c3-9.3,4-19.6,0.9-28.9
						c-5.6,8-13,16.9-22.7,16.1c-5.3-0.5-9.9-3.9-15-5.6c-11.2-3.7-23.2,1.4-34.3,5.2c-12.6,4.3-25.6,7-37.9,12.1
						c-12.3,5-24,12.8-30.5,24.4c-1.9,3.4-3.2,8.1-0.7,11.1C466.4,283.2,475.7,281.5,481,283.8z"/>
					<path id="XMLID_9_" class="st27" d="M495.8,367c-2.4-12.5-5.8-25.6-9.9-37.6c6.3-6.8,6.1-17.3,5-26.5
						c-1.2-9.6-2.9-19.2-5.1-28.6c-7.1,0.8-13.1,1.4-20.1,2.1c-4.5,0.5-9.4,1.2-12.3,4.6c-1.8,2.1-2.6,4.9-2.9,7.7
						c-1.2,11.1,4.5,21.6,9.9,31.3C470,337.3,482,352.9,495.8,367z"/>
					<path id="XMLID_10_" class="st37" d="M587.6,292.6c-3-3.9-7.3-6.8-12-8.1c-4.7-1.3-9.9-1.1-14.5,0.7L587.6,292.6z"/>
					<path id="XMLID_11_" class="st37" d="M534.8,287.2c-6-2.2-12.8-0.3-18.1,3.3c-5.2,3.6-9.2,8.7-13.1,13.8L534.8,287.2z"/>
					<path id="XMLID_12_" class="st37" d="M572.5,328.5c0.5,1,1.1,1.9,1.3,3c0.2,1.1-0.2,2.4-1.2,2.8c-1.3,0.5-2.6-0.6-3.5-1.6
						c-3.7-4.3-6.5-9.4-8.2-14.8c-1.2-3.9-1.7-8.3,1.4-11.6c2.1-2.2,5.3-3.3,7.7-1C575.3,310.5,569.4,322,572.5,328.5z"/>
					<path id="XMLID_13_" class="st37" d="M535,333.3c0.5,1.5,1.1,3.4,0,4.5c-0.4,0.4-0.9,0.6-1.4,0.7c-1.5,0.3-3.1-0.4-4.2-1.5
						c-1.1-1.1-1.9-2.4-2.6-3.8c-1.5-3.1-2.7-6.3-3.5-9.6c-0.9-3.6-1.7-8.8,0.3-12.3c1.8-3.2,5.2-3.4,7.7-0.7
						C536.5,316.2,532.8,326.4,535,333.3z"/>
					
						<linearGradient id="XMLID_298_" gradientUnits="userSpaceOnUse" x1="3560.2537" y1="336.8122" x2="3604.2195" y2="336.8122" gradientTransform="matrix(-1 0 0 1 4152.999 0)">
						<stop  offset="0" style="stop-color:#ED8DA9"/>
						<stop  offset="1" style="stop-color:#EDBBA9"/>
					</linearGradient>
					<path id="XMLID_14_" class="st46" d="M589.4,326.2c3.3,2.5,4.1,7.4,2.6,11.2c-1.5,3.8-4.9,6.7-8.5,8.6
						c-8.6,4.4-19.4,4.1-27.7-0.9c-4.4-2.7-8.8-7.7-6.2-13.1c2-4.2,5.5-4.8,9.6-4c5.3,1,8.9,1.1,14.1-0.9
						C578.2,325.4,584.6,322.6,589.4,326.2z"/>
					<path id="XMLID_131_" class="st39" d="M559.1,328.1c0,0,0.8,0.3,2.3,0.6c1.5,0.3,3.7,0.7,6.4,0.5c2.7-0.2,5.7-1.3,8.8-2.3
						c3-1,6.5-2,9.5-1.1c1.5,0.4,3,1.3,3.9,2.4c1,1.2,1.6,2.7,1.8,4.2c0.2,1.5,0.1,3-0.3,4.4c-0.4,1.4-1,2.6-1.7,3.6
						c-1.5,2.1-3.1,3.5-4.3,4.4c-1.2,0.9-2,1.4-2,1.4s0.8-0.3,2.2-1.1c1.3-0.8,3.3-2,5-4.1c0.9-1.1,1.7-2.3,2.2-3.8
						c0.5-1.5,0.8-3.2,0.6-5c-0.2-1.7-0.8-3.6-2-5.1c-0.6-0.8-1.3-1.4-2.2-1.9c-0.8-0.5-1.7-0.9-2.6-1.2c-1.9-0.5-3.8-0.4-5.6-0.1
						c-1.8,0.3-3.4,0.9-5,1.5c-1.6,0.6-3,1.2-4.4,1.8c-1.4,0.5-2.7,0.9-4,1.1c-2.5,0.4-4.7,0.4-6.2,0.2
						C560,328.2,559.1,328.1,559.1,328.1z"/>
					<path id="XMLID_22_" class="st40" d="M540.7,362.1c-4.9-1-9.7-2.5-14.7-2.1c-1.1,0.1-2.3,0.3-3.1,1c-1,0.9-1.2,2.3-1.2,3.6
						c0,5.2,2.8,10,6.5,13.5c3.8,3.5,8.5,5.8,13.3,7.7c11.9,4.6,25.5,6.9,37.3,2.1c2.3-0.9,4.8-2.6,4.8-5c0-1.8-1.4-3.3-2.7-4.7
						c-3-3.4-5.2-7.6-6.3-12c-0.1-0.5-0.2-1.1,0.1-1.6c0.3-0.5,0.9-0.6,1.4-0.8c2.8-0.9,6.1-3.4,6.6-6.5c-3.1,0.1-6.9,2.4-10,3.3
						c-3.4,1-6.8,1.6-10.3,2.1C555.2,363.7,547.8,363.5,540.7,362.1z"/>
					<path id="XMLID_147_" class="st39" d="M521.7,365c0-0.1,0-0.2,0-0.3c0-1.3,0.2-2.7,1.2-3.6c0.8-0.8,2-1,3.1-1
						c5-0.3,9.8,1.2,14.7,2.1c7.1,1.4,14.5,1.6,21.7,0.8c2-0.2,4-0.6,5.9-1C558.4,372.9,538.5,368.4,521.7,365z"/>
					<path id="XMLID_191_" class="st47" d="M579.1,387.9c-0.1,0-0.2,0.1-0.3,0.1c-11.9,4.7-25.4,2.5-37.3-2.1
						c-4.8-1.9-9.5-4.2-13.3-7.7c-1.3-1.2-2.5-2.6-3.5-4.2C543,369.7,563,380.3,579.1,387.9z"/>
					<path id="XMLID_99_" class="st33" d="M485.2,343.8c-4-3.9-8.5-7.7-13.9-9.1c-5.4-1.4-12,0.1-14.9,4.9
						c-2.5,4.1-1.7,9.5,0.8,13.6s6.3,7.1,10.1,10c10.2,7.6,22.1,15,34.7,13.3c1.6-0.2-3.7-16.7-4.6-18.3
						C494.6,352.7,489.6,348.1,485.2,343.8z"/>
					<path id="XMLID_115_" class="st48" d="M489.1,356.9c-4.3-6.4-10.6-13.8-18.4-15.8c-4.8-1.2-11.4,3-7.9,8.4
						c-1.5-9.1,11.7-0.7,14.2,1c-4.8,1.7-5.2,5.4-2.3,9.6c3.8,5.5,7.8,4.3,13.5,4.1c-2.9-0.1-12-5.9-7.2-9.2
						C483.8,352.9,486.4,358.7,489.1,356.9z"/>
					<path id="XMLID_130_" class="st49" d="M591.5,242.2c0.2,4-5.5,9.4-8.1,12.2c0.4-1.4,2.1-6,0.5-7.2c-2.2-1.6-5.2,5.4-7.6,5.8
						c-2.1,0.4-2.7-2.1-5.2-1.8c-1.6,0.2-4.4,3.2-5.7,4.3c-3.1,2.5-5.8,5.3-8.8,7.8c-0.8,0.7-3,3.1-4,3.2c-1.7,0.1-4.4-3.1-5.7-3.9
						c-3.1-1.8-5.9-2.3-9.3-2.9c-2.5-0.4-13.6-2.9-14.7,0.3c-0.7,1.9,6.2,3.4,7.8,5.4c-7.1,0.7-14.5-0.2-21.8,0.6
						c-4.5,0.5-7.6,2.2-11.8,3.4c0.5,0,1.1,0,1.6,0c-9.8,0-19.9-0.6-28.8,4.3c6.8-7.7,19-7.8,28.4-8.2c-0.5-0.5-0.9-1.4-1.3-1.9
						c5.3-3.4,12.1-2.5,17.8-3.6c-4-1.8-8-3.6-11.9-5.5c13.9-7.2,32.5,1.5,46.5,3.9c4.8,0.8,3.1,2.8,7.6-2.6
						c4.2-5,8.7-9.5,14.8-12.3c1.6,3,1,4,4.2,3.9c3.3-0.1,6.5-4.9,10-5.2C584.9,247.1,591.7,244.7,591.5,242.2z"/>
					<path id="XMLID_133_" class="st49" d="M485.4,300.3c0.2-5.3-1.1-12.7-5.6-16c-0.2,3.2-0.4,6.5-0.6,9.8c-6.1-4.2-3.9-1.7-9.9,0
						c-3.3,1-7.4,1-10.9,1.4c-0.7-1.6-1.2-3.4-1.6-5.1c-7.6-1.3,1.2,13.9,2.5,15.6c-0.9-2.3-2.3-4.8-1.9-7.4
						c1.6,1.9,4.6,3.6,5.6-0.1c4.1,0.7,6.9,0.3,10.9-0.1c1.5-5.2,5,0.1,5.4,2.9c2.2-0.9,1.9-6.3,1.8-8.6
						C482.3,294.7,485.1,300.1,485.4,300.3z"/>
					<path id="XMLID_153_" class="st39" d="M525.1,315.3c1.7,0,3.3,1.5,3.3,3.3c-0.1,1.8-1.4,3.3-3.3,3.3c-1.7,0-3.3-1.5-3.3-3.3
						C522,316.8,523.3,315.3,525.1,315.3z"/>
					<path id="XMLID_178_" class="st39" d="M562.3,311c3.2,0,3.2,4.9,0,4.9C559.2,315.9,559.2,311,562.3,311z"/>
				</g>
				<linearGradient id="XMLID_299_" gradientUnits="userSpaceOnUse" x1="657.8397" y1="659.815" x2="639.3614" y2="664.6777">
					<stop  offset="0" style="stop-color:#F4CB9A"/>
					<stop  offset="1" style="stop-color:#FCECDB"/>
				</linearGradient>
				<path id="XMLID_66_" class="st50" d="M657.9,670.6c0,0-8.4-0.1-11.8-8.9c-3.4-8.8,10-15.3,12.8-13.4
					c2.9,1.9,13.1,15.9,13.1,16.8C672,666.1,668.7,671.3,657.9,670.6z"/>
				<path id="XMLID_180_" class="st33" d="M449.7,624.8c-16,14.4-30.2,30.8-42.2,48.7c-10.8,16.1-20.4,34-36.7,44.5
					c-7.9,5-17.7,8.9-21,17.6c6.7,2.3,14.5,0.6,21.1-2.1c6.6-2.7,12.8-6.4,19.7-8.3c-1.3,4.3-2.4,8.8-3.4,13.2
					c1.4,0.6,3.5,1.3,5,1.1c1.1-5.9,3.2-12.1,6.8-16.8c1.4-1.8,3-3.8,2.9-6.1c-0.1-2.7-2.5-5.2-1.5-7.7
					c9.8-21.7,30.7-36.2,51.7-47.2c6.7-3.5,14.6-7.6,16-15c1-5-1.5-10.2-5.2-13.8S454.3,626.9,449.7,624.8z"/>
				<g id="XMLID_4_">
					<path id="XMLID_253_" class="st40" d="M569.7,493.2l0.7-14.6l-11.7-7.1l-5.8,15.1l13.8,6.6l2.8,28.1c7.7,8.4,16,16,24.9,22.6
						c-4.3-12.3-9.7-26.9-15-41.9L569.7,493.2z"/>
				</g>
				<linearGradient id="XMLID_300_" gradientUnits="userSpaceOnUse" x1="574.4903" y1="683.5087" x2="499.9254" y2="721.3114">
					<stop  offset="0" style="stop-color:#F4CB9A"/>
					<stop  offset="1" style="stop-color:#FCECDB"/>
				</linearGradient>
				<path id="XMLID_177_" class="st51" d="M479.1,570.7c-8.2,12.5-19.1,22.9-28.1,34.9c-4.6,6.1-8.8,13.2-8.5,20.8
					c0.5,12.4,12.4,21.5,15.4,33.5c4,15.9-7.9,34.8,1.8,48.1c5.4,7.4,15.4,9.5,24.5,9.9c9.1,0.4,18.7-0.3,26.9,3.6
					c6.8,3.2,12.1,9.4,14.2,16.6c2.7,9.3,0.3,20,5.6,28.1c6.9,10.4,22.1,10.1,34.2,7.5c12.2-2.5,26.1-5.7,36.1,1.8
					c6.7,5.1,9.6,13.8,15.9,19.3c8.1,6.9,20,7,30.4,4.8c10.4-2.1,20.6-6.1,31.3-6.1s22.4,5.6,25.1,15.9c2-18.4-5.5-37.5-19.4-49.6
					c-12.2-10.7-28.5-16-39.9-27.5c-11.3-11.4-16.4-27.7-17.9-43.7c-0.8-8.3-0.7-17-4.4-24.5c-3.1-6.5-8.6-11.4-14.1-16.1
					c-25.5-21.8-53.2-41.4-75-67c-11.6-13.6-21-31.5-34.8-43c-9.8-8.2-7.8-2.1-9.2,7.4C488.1,554.4,484.1,563.1,479.1,570.7z"/>
				<path id="XMLID_188_" class="st33" d="M499.6,523.9c-7-6.4-14-12.9-21-19.3c-6.6-6.1-13.2-12.2-20.6-17.3
					c-8.3-5.8-17.4-10.2-26.3-15.1c-9.7-5.3-19.2-11-28.7-16.7c-11-6.7-22.1-13.3-33.1-20c-7.9-4.8-15.9-9.6-22.7-15.9
					c-5.3-4.9-9.9-10.7-15.9-14.8c-5.9-4-13.3-6.5-17.1-12.6c-2.3-3.7-2.8-9-4.9-12.7c-0.5-0.9-1.1-1.8-2.1-2
					c-1.1-0.3-2.2,0.4-2.7,1.3c-0.6,0.9-0.7,2.1-0.8,3.1c-0.5,7.1,0.8,14.4,3.7,20.9c3,6.8,7.7,12.7,12.3,18.6
					c-3.9,1.5-8.3,3.4-12.3,4.3c0,1,0,2.1,0,3.1c4.1,0.3,8.3-1.9,12.2-0.8c2.4,0.7,4.4,2.7,6.8,3.2c2.4,0.5,4.8-0.3,7-1.2
					c1.7-0.6,3.5-1.3,5.2-1.9c4.9,7.6,9.6,15.6,14.5,23.2c6.1,9.4,12.3,18.9,21.3,25.6c8,6,17.6,9.3,27,12.5
					c9.7,3.3,19.5,6.6,29.2,9.9c10.2,15.1,21.7,29.9,32.8,44.3c12.5,16.4,26.1,32.8,44.2,42.7C510.3,566.5,514.3,537.5,499.6,523.9z
					"/>
				<path id="XMLID_70_" class="st31" d="M737.3,564.4c-0.9-8.7-2.3-17.4-5.5-25.5c-3.2-8.1-6.8-15.9-14.1-20.7
					c-11.3,0.4-22.2,4-31.7,10.1c-4.4-8.3-10.9-15.2-18.3-20.8c-13.2-1.3-26.9,3.6-36.3,12.9c0.7,12.7,2.5,27.2,8.9,38.2
					c-7,11.7-17.7,23.1-27.5,32.6c6.5,0.2,12.1,1.6,18,4.1c16.9,7.4,28.6,23.3,37,39.8c13.5-16.1,26.3-32.4,38-49.9
					C712.6,575,727.5,571.8,737.3,564.4z"/>
				<linearGradient id="XMLID_301_" gradientUnits="userSpaceOnUse" x1="587.1686" y1="603.8935" x2="483.7866" y2="607.996">
					<stop  offset="0" style="stop-color:#F4CB9A"/>
					<stop  offset="1" style="stop-color:#FCECDB"/>
				</linearGradient>
				<path id="XMLID_174_" class="st52" d="M509.4,519.1c-3.8-4.8-6.8-10.2-11-14.6c-6.8-7.3-16.7-11.6-26.7-11.6
					c9.5,2.6,16.1,12.9,14.6,22.6c-1,6.8-5.6,13.2-4.5,20.1c0.8,5,4.5,9.1,6.4,13.8c3.5,8.5,1.1,18.2-2.4,26.7s-8.1,16.8-9.1,25.9
					c-1.1,10.9,3.4,22.2,11.8,29.2c8.7,7.3,21.2,10.4,26.7,20.3c4.6,8.3,3.1,19.3,9.1,26.7c3.6,4.4,9.3,6.5,14.9,7.2
					s11.3,0.1,16.9-0.1c10.1-0.3,20.9,1.1,28.7,7.6c6.4,5.3,10.1,13.4,16.5,18.7c6,4.9,14.1,6.8,21.8,6.6s15.3-2.4,22.6-5.1
					c-3.7-9.4-5.4-19.7-4.9-29.8c0.2-3.1,0.5-6.2-0.4-9.1c-0.7-2.2-2.1-4.1-3.6-5.9c-6.1-7.3-13.7-13.2-20.6-19.8
					c-12.5-11.9-22.7-25.8-32.9-39.7c-13.2-18-26.5-36.2-37.2-55.9c-4.5-8.3-5.2-12.1-14-16C523.5,532.7,515.5,526.8,509.4,519.1z"
					/>
				<linearGradient id="XMLID_302_" gradientUnits="userSpaceOnUse" x1="608.999" y1="616.378" x2="548.8295" y2="645.9157">
					<stop  offset="0" style="stop-color:#F4CB9A"/>
					<stop  offset="1" style="stop-color:#FCECDB"/>
				</linearGradient>
				<path id="XMLID_176_" class="st53" d="M537,589.5c-3.4,5.1-8.2,9.3-11.3,14.6s-4,12.8,0.3,17.2c3.9,4,10.6,4.1,14.8,7.8
					c8,7.2,1.8,21.7,8.2,30.3c5,6.7,14.8,6.5,22.9,8.2c5.5,1.2,10.8,3.6,14.6,7.6c7.7,8.1,9.6,22.4,20.3,25.9c6.2,2,13-0.8,18.6-4.1
					s11.2-7.4,17.7-8.1c2.6-20.4-10.5-39.6-25.6-53.5c-15.2-13.9-33.1-25-45.5-41.4c-7.8-10.3-13.2-22.8-23.1-31.4
					c-8.6-7.5-7.1-2.2-6.6,5.8C543,575.9,541.1,583.4,537,589.5z"/>
				<linearGradient id="XMLID_303_" gradientUnits="userSpaceOnUse" x1="623.5114" y1="587.842" x2="581.4842" y2="611.8604">
					<stop  offset="0" style="stop-color:#F4CB9A"/>
					<stop  offset="1" style="stop-color:#FCECDB"/>
				</linearGradient>
				<path id="XMLID_110_" class="st54" d="M597.1,570.4c-11.1-2.3-22.6-5.5-30.8-13.3c-4.9-4.7-8.2-10.7-11.5-16.5
					c-3.3-5.9-6.9-11.8-12-16.2c-5.1-4.4-12.2-7.1-18.7-5.3c4.9-0.1,10.1,3.3,11.9,7.8c2.7,6.5-0.5,13.7-3.5,20s-5.8,13.8-2.5,20
					c3.5,6.5,11.8,8.1,17.9,12.1c4.6,3,8.1,7.6,9.9,12.8c3.9,11.7-1.2,25.7,5.5,36.1c2.5,3.9,6.5,6.8,11,8c4,1,8.3,0.6,12.4,1.4
					c8.2,1.5,15.2,8,17.5,16c1.3,4.5,1.2,9.3,3.2,13.5c2.5,4.9,8.1,8,13.5,7.6c4.4-0.4,9.7,1.7,11.9,5.6c2.2,3.9,2.9,8.4,4.7,12.5
					s5.6,7.9,10,7.5c1.1-16.5,6.6-32.6,15.7-46.4c0.5-0.7,1-1.5,1-2.3c0-0.7-0.3-1.4-0.5-2c-7.5-16.6-19.4-31.2-34.3-41.8
					c-6.6-4.7-13.8-8.6-19.5-14.4C603.7,586.7,598.5,578.9,597.1,570.4z"/>
				<linearGradient id="XMLID_304_" gradientUnits="userSpaceOnUse" x1="656.0482" y1="590.887" x2="613.3826" y2="610.5788">
					<stop  offset="0" style="stop-color:#F4CB9A"/>
					<stop  offset="1" style="stop-color:#FCECDB"/>
				</linearGradient>
				<path id="XMLID_71_" class="st55" d="M613.3,582.9c14.3,0.7,28,7.3,38.3,17.2c10.4,9.9,17.5,22.8,21.5,36.5
					c0.4,1.4,1.2,4.1,2,5.4c3.7,6.4,7.5,14.1,4.3,20.7c-1.8,3.7-5.5,6.2-9.4,7.4c-4,1.1-8.2,1-12.2,0.5c3.6,0.3,5.2-5.5,4-9.1
					c-1.2-3.5-5.1-5.5-8.8-6.1s-7.5-0.4-11.1-1.4c-7.9-2.3-13.1-11.3-11.2-19.2c0.7-2.8,2.1-5.5,2.3-8.3c0.7-9-9.7-14.5-18.6-15.9
					s-19.3-2.2-24.3-9.6c-6.7-9.9,1.5-23.5-1-35.2c-2.3-10.3-12.9-17.1-23.4-18c3.3-2.1,6.2-4.7,10.1-5.3c5.3-0.8,10.7,1.4,14.8,4.7
					c4.1,3.4,7.2,7.9,10,12.4C605.1,566.4,609.9,575.7,613.3,582.9z"/>
				<g id="XMLID_260_">
					<g id="XMLID_410_">
						<g id="XMLID_413_">
							<path id="XMLID_414_" class="st40" d="M368.6,719.4c-7.4,4.4-15.8,8.3-18.8,16.2c6.7,2.3,14.5,0.6,21.1-2.1
								c6.6-2.7,12.8-6.4,19.7-8.3c-1.3,4.3-2.4,8.8-3.4,13.2c1.4,0.6,3.5,1.3,5,1.1c1.1-5.9,3.2-12.1,6.8-16.8
								c1.4-1.8,3-3.8,2.9-6.1c0-0.6-0.2-1.2-0.4-1.8c-8.6,2-16.1,5.9-22.9,12C375.8,723.8,372.3,721.3,368.6,719.4z"/>
						</g>
						<g id="XMLID_411_">
							<path id="XMLID_412_" class="st40" d="M316.3,411.7c-0.8-0.4-1.7-0.9-2-1.8c-0.2-0.6-0.1-1.2,0.1-1.8
								c0.9-4.4,1.5-8.9,1.8-13.4c-0.7-0.8-1.3-1.6-1.9-2.5c-2.3-3.7-2.8-9-4.9-12.7c-0.5-0.9-1.1-1.8-2.1-2
								c-1.1-0.3-2.2,0.4-2.7,1.3c-0.6,0.9-0.7,2.1-0.8,3.1c-0.5,7.1,0.8,14.4,3.7,20.9c3,6.8,7.7,12.7,12.3,18.6
								c-3.9,1.5-8.3,3.4-12.3,4.3c0,1,0,2.1,0,3.1c4.1,0.3,8.3-1.9,12.2-0.8c2.4,0.7,4.4,2.7,6.8,3.2c2.4,0.5,4.8-0.3,7-1.2
								c0.4-0.1,0.7-0.3,1.1-0.4C330.4,422.1,324,415.8,316.3,411.7z"/>
						</g>
					</g>
				</g>
				<path id="XMLID_190_" class="st33" d="M713.1,561.7c-1.7-2.5-4.2-5.1-7.1-4.4c-1,6.9,4,13.1,6.6,19.6
					c-2.8-5.5-7.7-9.8-13.5-11.9c-0.8-0.3-1.7-0.5-2.4-0.1c-1.4,0.8-0.7,2.9,0.1,4.3c3.4,5.6,6.8,11.1,10.2,16.7
					c-3.1-4.9-8.1-8.6-13.7-10c-0.3-0.1-0.7-0.2-1,0c-0.4,0.2-0.6,0.6-0.7,1c-0.8,2.6,0.7,5.4,2.5,7.4c1.8,2,4.1,3.7,5.4,6.1
					c-3.7-2.5-7.9-4.2-12.3-5c-1,3,2.2,5.6,5,7.2c2.8,1.6,5.5,3.2,8.3,4.7c1.5,0.8,3.4,1.7,4.7,0.6c0.7-0.6,1.1-1.6,1.8-2
					c1.4-0.9,3.7,0.3,4.7-1c0.5-0.6,0.5-1.6,1.2-2.1c0.8-0.5,1.8,0.1,2.7-0.1c1.6-0.4,1.6-2.9,3-3.7c0.6-0.3,1.4-0.3,2.1-0.4
					C730,586.2,715.1,564.6,713.1,561.7z"/>
				<path id="XMLID_193_" class="st33" d="M937.8,373.5c-0.6,1.5-1,3.3,0.1,4.5c0.8,0.9,2.1,1,3.2,0.6c1.1-0.4,2-1.1,2.9-1.9
					c2.6-2.3,5-4.9,7.1-7.7c3-3.9,1.4-8.1-3.6-6.4C943.2,364,939.5,369.5,937.8,373.5z"/>
				<path id="XMLID_194_" class="st33" d="M943.4,377c-0.7,1.2-1.3,2.6-1.2,4c0,1.4,0.8,2.9,2.1,3.4c2,0.8,4.1-0.8,5.6-2.3
					c2.3-2.3,4.6-4.8,6-7.7c1.8-3.9,0.2-7.1-3.9-6C948.4,369.4,945,374,943.4,377z"/>
				<path id="XMLID_195_" class="st33" d="M951.4,377.6c-2,1.9-3.4,4.4-3.5,7.1c0,0.4,0,0.8,0.2,1.1c0.3,0.4,0.8,0.6,1.3,0.7
					c3.8,0.7,7.3-2.4,9.5-5.6C964.3,373.2,955.8,373.3,951.4,377.6z"/>
				<path id="XMLID_198_" class="st33" d="M964,383.5c-0.9-2-3.2-2.8-5.2-2.1c-3.1,1.1-5.9,3.2-7.7,6c-0.9,1.4-1.6,3.4-0.4,4.6
					c0.6,0.6,1.4,0.8,2.3,0.8c2.2,0,4.2-1.3,6-2.6c2.1-1.5,4.3-3.1,5.2-5.4C964.3,384.4,964.2,383.9,964,383.5z"/>
				<path id="XMLID_257_" class="st39" d="M708.4,395.5c-0.1-0.5-0.5-0.9-1-0.9c-0.3,0-0.5,0-0.7,0.1c-0.4,0.2-0.6,0.5-0.7,0.9
					c-0.2,0.5-0.2,1-0.2,1.5c0,0.7,0.6,1.3,1.3,1.3c0.7,0,1.3-0.6,1.3-1.3c0-0.3-0.1-0.7-0.1-0.9C708.4,396,708.5,395.8,708.4,395.5
					z"/>
				<path id="XMLID_270_" class="st39" d="M755.9,403.9c0,0-0.1,0-0.1-0.1c-0.2,0-0.4,0-0.5,0c-0.2,0.1-0.5,0.2-0.6,0.4
					c-0.3,0.3-0.5,0.7-0.6,1.1c-0.1,0.4-0.1,0.8-0.1,1.2c0,0.6,0.2,1,0.5,1.4c0.4,0.5,1.2,0.3,1.6-0.2c0.2-0.3,0.3-0.5,0.3-1
					c0-0.3,0-0.5,0-0.8c0-0.2,0-0.5,0-0.5c0,0,0.1-0.3,0-0.2c0,0,0.1-0.1,0.1-0.2C756.8,404.7,756.5,403.9,755.9,403.9z"/>
				<path id="XMLID_220_" class="st56" d="M800.8,341.1c0.9-1.4,1.6-2.9,3-3.7c2.2-1.2,4.9,0,7.1,1.3c0.5-3.1,1.1-6.3,1.6-9.4
					c5.1,5.7,7.1,14,5.1,21.4c-1.1-2.6-2.2-5.1-3.4-7.7c1.2,2,0.5,5-1.6,6.1c-2.1,1.1-5,0.2-6-2c-0.7,4.9-4.4,9.3-9.1,11
					c-4.7,1.7-10.3,0.5-13.9-2.9c0.3,2.2,0.4,4.6-1,6.3c-1.4,1.7-4.7,1.6-5.3-0.5c0.9,1.9-1.9,3.8-3.8,2.9s-2.6-3.2-2.9-5.2
					c-2.4-14,10-5.4,9.4-14.6C786.3,348.9,796.4,348,800.8,341.1z"/>
				<path id="XMLID_254_" class="st56" d="M712.4,308.9c-3.5,3.1-6.2,7-7.8,11.4c3.5-0.8,7-1.5,10.4-2.3c-0.4,2.3-0.8,4.6-1.2,6.9
					c10.1,5,21.1,8,32.3,8.9c9.9,0.2,19.7-3.5,27-10.2c-2.2,9.9-11.9,16-20.8,20.9c1.8-2.3,3.7-4.5,5.5-6.8
					c-5.8,3.9-13.1,5.5-20,4.4c-0.2-2.4-2.9-3.8-5.2-3.9c-2.4,0-4.6,0.9-7,1.4c-8.4,1.7-17.6-4.1-19.8-12.4c-2.3,0-4.6,1.1-6.1,2.9
					c0.5-2.1,1-4.2,1.5-6.3c0,1.2-6.3,2.7-7,2.8C697,318.9,705.1,312.4,712.4,308.9z"/>
				<path id="XMLID_402_" class="st56" d="M790.5,393.8c1.9,3.1,3.9,6.2,5.8,9.3c0.9-1.9,1.7-3.9,2.6-5.8c8.6,4.2,20.4-1,23.1-10.1
					c1.3,1,2.6,1.9,3.8,2.9c0.5-2.9-0.1-6-1.6-8.6c4.7,5.9,7.7,13.3,8.5,20.8c-1.9-1.8-3.9-3.6-5.8-5.4c-0.3,1.7-0.5,3.4-0.8,5
					c-1.1-1.2-2.3-2.3-3.4-3.5c-6.2,5.2-14.3,7.9-22.4,7.4c1.2,0.4,1,2.4-0.2,3s-2.6,0-3.6-0.7c-1.1-0.7-2.1-1.6-3.4-1.8
					c-1.6-0.2-3.4,1.4-4.2,2.6C788.2,404.2,789.3,398.7,790.5,393.8z"/>
				<path id="XMLID_408_" class="st56" d="M676.7,377.5c-3.4-1.5-5.4-5.6-4.6-9.2c-1.9-0.2-3.9,0.5-5.2,2c1.6-3.6,3.1-7.3,4.7-10.9
					c-4.6,2.5-8.6,6-11.6,10.2l1.9-0.1c1.1-0.2,2.1-0.3,3.2-0.5c-0.2,2.7-0.3,5.5-0.5,8.2c1.4-0.8,2.9-1.6,4.3-2.4
					c1,6.6,7.5,11.8,14.2,11.4c0.8,1.3,1.6,2.7,2.4,4c0.4-5.1,0.8-10.1,1.2-15.2C684.5,378,680.1,379.1,676.7,377.5z"/>
				<g id="XMLID_1_">
					<path id="XMLID_248_" class="st24" d="M927.6,281.4c3.6-2.1,7.3-4.2,11.4-5c4.1-0.8,8.7,0,11.7,2.9
						c-7.8,2.7-12.1,11.1-19.2,15.4c-3.1,1.9-15,6-16.1-0.2C914.6,289.5,924.2,283.4,927.6,281.4z"/>
					<path id="XMLID_247_" class="st57" d="M934.9,291.4c1,2.1,0.9,4.6,2.3,6.5c0.9,1.4,2.5,2.2,3.6,3.5c2,2.3,2.2,5.9,0.5,8.4
						c-0.2,0.4-0.5,0.7-0.6,1.2c-0.1,0.7,0.3,1.4,0.6,2c1.3,2.9,0.4,6.7-2.2,8.7c-2.4,1.9-5.8,2-8.8,2c-0.4,0-0.8,0-1.2-0.2
						c-0.5-0.4-0.6-1.1-0.6-1.8c-0.1-4.4-2.8-8.6-6.7-10.6c-1.5-0.8-3.2-1.3-4.5-2.4c-3.8-3.6-3.9-14.1-0.2-17.9
						C921.5,286.1,931.7,284.6,934.9,291.4z"/>
					<path id="XMLID_246_" class="st58" d="M913.7,344.5c2.3,1.4,5.3,2,7.8,1.1c3.4-1.1,5.7-4.6,9.2-5.3c1.5-0.3,3.1,0,4.6-0.3
						c3.9-0.6,6.6-4.8,6.4-8.8c-0.2-4-2.9-7.5-6.2-9.6c-0.9-0.6-1.9-1.1-2.3-2.1c-0.4-1,0-2.1-0.2-3.2c-0.3-1.9-2.2-3.1-4-3.8
						c-3.1-1.2-6.9-1.8-9.5,0.3c-2.6,2.2-2.6,5.8-3.9,8.7c-1.6,3.5-4.8,4.9-7.6,7.2C901.5,333.8,908.2,341.3,913.7,344.5z"/>
					<path id="XMLID_251_" class="st24" d="M872.3,358.5c0.8,0.1,1.4-0.5,2-1.1c2-2,4.3-3.7,6.7-5.2c1.4-0.8,2.8-1.7,3.7-3
						c1.3-1.9,1.1-4.5,0.1-6.6c-0.3-0.7-0.8-1.4-1.5-1.7c-0.7-0.3-1.5-0.2-2.2,0c-3.2,0.9-5.6,3.5-7.2,6.3
						C873.4,348.3,870.2,358.3,872.3,358.5z"/>
					<path id="XMLID_244_" class="st57" d="M883.8,356.3c2,0.4,4.4,0.2,5.7,1.8c0.8,1,0.8,2.3,1.1,3.5c1.1,3.9,5.9,5.9,9.8,5.1
						c4-0.9,7.1-4,9.3-7.4s3.6-7.3,5.6-10.8c0.8-1.4,1.7-2.9,1.9-4.5c0.3-2.3-0.9-4.4-2-6.4c-1-1.7-2.1-3.6-3.9-4.4
						c-1.3-0.6-2.8-0.5-4.3-0.7c-2.1-0.3-4.1-1.2-6.1-1.5c-3.9-0.6-7.8,0.8-11,3c-3.4,2.3-8.4,6.2-10.6,9.7
						C876.4,348.3,878.1,355.1,883.8,356.3z"/>
					<path id="XMLID_245_" class="st35" d="M894.3,350.1c-0.3-2.2-0.6-4.3-0.9-6.5c0.9,2.2,3.3,3.7,5.7,3.6c2.4-0.1,4.6-1.7,5.6-3.9
						c0.6-1.2,0.8-2.7,0.5-4c-0.3-1.3-1.3-2.5-2.6-3c1.7,0.2,3.3,1,4.4,2.2c-0.2-1.7-1.4-3.2-2.9-4s-3.3-0.9-5-0.6
						c-1.3,0.2-2.6,0.7-3.9,0.8c-3.8,0.4-9.6-0.9-8.8,4.8c0.3,2.1,1.6,4.3,2.9,6C890.1,346.5,894.2,349.4,894.3,350.1z"/>
					<linearGradient id="XMLID_305_" gradientUnits="userSpaceOnUse" x1="902.004" y1="296.0454" x2="904.8757" y2="271.8409">
						<stop  offset="0" style="stop-color:#9B124A"/>
						<stop  offset="1" style="stop-color:#F70673"/>
					</linearGradient>
					<path id="XMLID_240_" class="st59" d="M882.7,273.1c2.1-3.8,5.6-7,9.8-7.7s9.1,1.8,10.1,6c0.4,1.9,0.3,4.2,1.9,5.2
						c0.6,0.4,1.5,0.5,2.2,0.6c5.9,0.5,11.9-0.8,17.6,0.9c1.8,0.6,3.9,2.5,2.7,4c-0.4,0.5-1.1,0.7-1.6,1.1c-1.2,0.9-1.4,2.7-1.2,4.1
						c0.2,1.5,0.8,2.9,0.9,4.4c0.3,3.9-3.3,7.6-7.2,7.5c-2.4-0.1-4.6-1.3-6.9-1.7c-5-0.9-9.9,1.9-15,2.5
						C881.1,301.8,876.6,284.2,882.7,273.1z"/>
					<path id="XMLID_249_" class="st24" d="M877.1,281.4c-4.5-1.1-9.4-2.1-12.5-5.6c0.2,3.9,0.9,7.8,2.6,11.4c1.7,3.5,4.5,6.6,8.1,8
						c4.6,1.8,12.4,0.4,13.3-5.5C889.3,284.3,881.1,282.3,877.1,281.4z"/>
					<path id="XMLID_250_" class="st24" d="M846.2,317.7c4.7,2.3,9.5,4.7,14.7,5.3c1,0.1,2,0.1,3-0.1c1.2-0.3,2.2-1,3.2-1.7
						c1.9-1.4,3.8-3.1,4.2-5.4c0.3-1.6-0.3-3.2-1.1-4.5C863.1,300,851.6,311.5,846.2,317.7z"/>
					<path id="XMLID_241_" class="st58" d="M867.8,290.1c-1,0.7-2,1.6-3.2,2c-0.9,0.3-1.9,0.2-2.8,0.3c-3.1,0.4-5.5,2.9-7,5.6
						c-1.6,2.9-2.5,6.4-1.1,9.4c1,2.1,3.1,3.6,3.8,5.8c0.5,1.8,0.2,4.1,1.6,5.4c1.3,1.1,3.2,0.7,4.8,0.2c7.1-2.4,13.6-6.4,19.7-10.8
						c4.5-3.3,13.3-11.7,6.2-16.9C883.9,286.6,873.8,285.7,867.8,290.1z"/>
					<path id="XMLID_242_" class="st56" d="M868.6,305.8c-2.6,0.6-5.2,1.5-7.1,3.3c-4.4,3.9-4.2,11.3-0.8,16.1c0.7,1,1.5,2,1.3,3.2
						c-0.1,0.7-0.6,1.2-1,1.8c-1.9,2.4-3,5.5-2.6,8.5s2.5,5.9,5.4,6.8c4.4,1.3,9.5-1.8,13.5,0.5c2.9,1.6,4.7,5.9,7.9,5.3
						c1.3-0.2,2.3-1.2,3.2-2.2c3.6-4.1,6.5-9.6,4.9-14.8c-0.9-2.7-3-5.1-3.1-7.9c0-1.4,0.4-2.7,0.6-4c1-5.2-1.2-10.7-5.1-14.3
						C880.5,303.2,874.9,304.2,868.6,305.8z"/>
					<path id="XMLID_243_" class="st35" d="M875.3,326.7c1.7-0.5,3.2-1.6,4.1-3.1c-0.2,1.3-0.7,2.6-1.4,3.8c2.2,0,4.4-1.1,5.8-2.8
						c-0.3,1.8-1.6,3.3-3.3,3.9c1.4,0.9,2,2.6,3,3.9c1,1.4,2.3,2.6,3.9,3.3c-2.3,0.5-4.9-0.3-6.6-2c0.1,1.4-0.1,2.8-0.6,4.1
						c-0.6-0.9-1.1-1.9-1.7-2.8c-0.2-0.3-0.4-0.7-0.8-0.7c-0.5,0-0.7,0.6-0.9,1.1c-1.1,3.4-5.3,5.5-8.6,4.2
						c-0.6-0.2-1.1-0.5-1.5-1.1c1.5,0.1,3-0.6,4-1.7s1.8-2.4,2.6-3.7c-1.3,0.2-2.7,0.4-4-0.1c-1.9-0.8-1.1-2-1.7-3.2
						c-0.2-0.4-1.7-2.3-1.6-2.8C866.5,325,873.7,327.1,875.3,326.7z"/>
					<path id="XMLID_233_" class="st60" d="M872.9,310.6c-1.7-1.9-3.1-4.3-3-6.9c0.2-3.5,3.1-6.1,5.8-8.3c3.1-2.4,6.9-4.8,10.7-4
						c2,0.4,3.7,1.7,5.8,1.9c3.1,0.2,5.7-2.1,8.3-3.7c3.3-1.9,7.2-2.8,11-2.5c0.9,0.1,1.7,0.2,2.5,0.7c1.8,1.2,1.9,3.7,2.6,5.7
						c1.9,5.6,9.2,8,11,13.6c0.3,0.9,0.4,1.9,0.1,2.8c-0.5,1.4-2.1,2.2-2.9,3.5c-1.9,2.7-0.2,6.3-0.2,9.6c0.1,5.6-6,10.4-11.5,9
						c-2-0.5-4.1-1.7-6-0.8c-1,0.5-1.6,1.5-2.3,2.4c-2.1,2.6-5.3,4.3-8.6,4.5s-6.7-1.3-8.8-4c-1.3-1.7-2-3.8-3.4-5.4
						c-1.5-1.7-2.8-2.5-2.5-4.9c0.2-1.6,1.9-3.3,1.4-5c-0.5-1.9-2.8-2.5-4.4-3.5C876.4,314,874.5,312.4,872.9,310.6z"/>
					<path id="XMLID_238_" class="st40" d="M894.2,299.5c0.5,3.8,2.3,7.5,5.1,10.2c1.1-1.5,2.5-3.1,4.4-3.1c2.4,0,3.8,2.7,4.6,5
						c2.6-1.3,4.9-3.3,6.4-5.8c-0.2,1.5-0.5,3-1.2,4.3c-0.7,1.3-1.9,2.4-3.4,2.6c2.7,0.9,5.6,1.3,8.5,1.2c-3.4,1.8-7.3,2.5-11,2.1
						c-0.7,2.3-2,4.5-4.1,5.7c-2.1,1.2-5,1-6.6-0.9c-1.5,1.4-2.2,3.5-1.9,5.5c-1.2-2-1.2-4.7-0.1-6.8c-2.8-0.2-5.5-1.6-7.3-3.8
						c1.8,0.3,3.7,0.6,5.5,0.8c-1.5-0.2,1.9-6.6,1.9-7.4C894.9,305.8,892.1,303.4,894.2,299.5z"/>
					<path id="XMLID_239_" class="st61" d="M901.3,309.1c0.7-1,1.7-2,3-2c1.1,0,2,0.7,2.5,1.7c0.5,0.9,0.6,2,0.6,3.1
						c0,3.2-1.9,11.6-6.7,10C895.1,319.9,899.2,311.8,901.3,309.1z"/>
				</g>
			</g>
		</g>
	</g>
</g>
</svg>
