<?xml version="1.0"?><svg width="744.09448819" height="1052.3622047" xmlns="http://www.w3.org/2000/svg">
 <title>Image Not Available</title>

 <metadata id="metadata12390">image/svg+xmlOther map symbolsMohamed IbrahimPublic Domainclker.comother map symbols</metadata>
 <g>
  <title>Layer 1</title>
  <rect id="svg_6" height="338" width="164" y="225.637817" x="285.905518" stroke-linecap="null" stroke-linejoin="null" stroke-dasharray="null" stroke-width="null" fill="#ffffff"/>
  <path fill="#7f7f7f" fill-rule="nonzero" id="path2782" d="m278.579987,299.747986l-20.267975,0l-2.344009,7.307007l24.30101,0l-1.689026,-7.307007z"/>
  <path fill="#7f7f7f" fill-rule="nonzero" id="path2784" d="m461.371002,295.852997l-26.98999,0l-4.791016,11.270996l36.15799,0l-4.376984,-11.270996z"/>
  <path fill="#7f7f7f" fill-rule="nonzero" id="path2786" d="m368.71701,303.229004l-23.232025,0l0,-11.237l23.232025,0l0,11.237zm21.302002,-15.752014l-65.595001,0l-13.512024,19.785004l91.482025,0l-12.375,-19.785004z"/>
  <rect opacity="0.55" transform="rotate(31.2995 364.669 403.552)" id="svg_2" height="5.199995" width="814.133607" y="400.952511" x="-42.397348" stroke-linecap="null" stroke-linejoin="null" stroke-dasharray="null" stroke-width="null" fill="#3f3f3f"/>
  <rect id="svg_4" opacity="0.55" transform="rotate(-31.6974 365.024 391.381)" height="5.199995" width="816.738099" y="388.780515" x="-43.345069" stroke-linecap="null" stroke-linejoin="null" stroke-dasharray="null" stroke-width="null" fill="#3f3f3f"/>
  <path fill="#ffffff" fill-rule="nonzero" id="path2778" d="m306.504944,319.503021c-7.531494,0 -13.684906,6.820618 -13.684906,15.207214l0,116.713837c0,8.386597 6.153412,15.191956 13.684906,15.191956l104.785553,0c7.531067,0 13.642487,-6.805359 13.642487,-15.191956l0,-116.713837c0,-8.386597 -6.11142,-15.207214 -13.642487,-15.207214l-104.785553,0z"/>
  <path fill="#7f7f7f" fill-rule="nonzero" id="path2790" d="m413.837006,375.68399c-0.929993,-1.654999 -2.10202,-3.205994 -3.377014,-4.687988c-6.928986,-8.34201 -17.303986,-13.821991 -28.988983,-13.821991c-11.720001,0 -22.095001,5.445984 -29.02301,13.752991c-1.276001,1.515991 -2.447998,3.067993 -3.446991,4.756989c-3.481995,5.721008 -5.584015,12.339996 -5.584015,19.509003c0,20.957001 17.028015,37.985016 38.054016,37.985016c20.923004,0 37.949982,-17.028015 37.949982,-37.985016c0,-7.169006 -2.067993,-13.787994 -5.583984,-19.509003"/>
  <path fill="#7f7f7f" fill-rule="nonzero" id="path2788" d="m435.450012,370.822998c3.377991,7.446014 5.376984,15.648987 5.376984,24.369995c0,32.779999 -26.575989,59.391022 -59.355988,59.391022c-32.815002,0 -59.391022,-26.611023 -59.391022,-59.391022c0,-8.721008 1.965027,-16.923981 5.378021,-24.403992l-106.028015,0l0,89.481995c0,12.132996 9.824005,22.026001 22.026001,22.026001l227.876007,0c12.167999,0 22.095001,-9.893005 22.095001,-22.026001l0.069,-89.447998l-58.04599,0z"/>
  <path fill="#7f7f7f" fill-rule="nonzero" id="path2780" d="m381.471008,335.803009c21.647003,0 40.432007,11.787994 50.807983,29.16098l61.14801,0.069l0,-32.780975c0,-12.202026 -9.927002,-22.094025 -22.095001,-22.094025l-227.876007,0c-12.201996,0 -22.026001,9.891998 -22.026001,22.094025l0.069,32.504974l109.130005,0.069c10.444,-17.303986 29.161011,-29.02298 50.84201,-29.02298"/>
 </g>
</svg>